<svg width="1182" height="812" viewBox="0 0 1182 812" fill="none" xmlns="http://www.w3.org/2000/svg">
<rect width="1182" height="812" fill="#F5F5F5"/>
<g clip-path="url(#clip0_0_1)">
<rect width="375" height="812" fill="white"/>
<path d="M0 0H375V127L177.5 11.7395L0 127V0Z" fill="#6E2727"/>
<path d="M376.062 811.637L1.07823 815.164L7.48698e-06 700.527L177.832 802.564L374.983 697L376.062 811.637Z" fill="#6E2727"/>
<path d="M70.56 630.96C71.44 630.96 72.12 631.2 72.6 631.68C73.1067 632.16 73.36 632.827 73.36 633.68C73.36 633.893 73.3333 634.12 73.28 634.36C73.2533 634.573 73.2133 634.76 73.16 634.92C72.8133 634.867 72.4267 634.827 72 634.8C71.5733 634.747 71.0667 634.72 70.48 634.72C69.3333 634.72 68.1733 634.827 67 635.04C65.8267 635.227 64.7067 635.387 63.64 635.52C63.0267 636.933 62.4667 638.307 61.96 639.64C61.4533 640.947 61.0133 642.147 60.64 643.24C60.2933 644.333 60.0133 645.28 59.8 646.08C59.6133 646.88 59.5067 647.48 59.48 647.88C61.64 647.427 63.8133 647.04 66 646.72C68.2133 646.4 70.5333 646.16 72.96 646C73.2533 646.453 73.4933 646.947 73.68 647.48C73.8933 648.013 74 648.587 74 649.2C74 649.36 74 649.533 74 649.72C74 649.907 73.9733 650.093 73.92 650.28C73.1733 650.253 72.3867 650.227 71.56 650.2C70.7333 650.2 69.6533 650.2 68.32 650.2C67.44 650.2 66.6 650.213 65.8 650.24C65.0267 650.293 64.24 650.36 63.44 650.44C62.64 650.52 61.7867 650.627 60.88 650.76C60 650.893 59 651.053 57.88 651.24C56.6533 650.76 55.4667 649.587 54.32 647.72C54.7733 646.76 55.4 645.307 56.2 643.36C57.0267 641.387 58.0667 638.76 59.32 635.48C58.12 635.107 57.3333 634.44 56.96 633.48C57.0933 633.347 57.48 633.187 58.12 633C58.76 632.787 59.5467 632.573 60.48 632.36C60.88 631.32 61.2133 630.413 61.48 629.64C61.7733 628.867 62.0267 628.147 62.24 627.48C62.4533 626.787 62.64 626.12 62.8 625.48C62.9867 624.813 63.16 624.093 63.32 623.32C62.3867 623.267 61.6533 623.013 61.12 622.56C60.5867 622.08 60.32 621.467 60.32 620.72C60.32 620.507 60.3467 620.253 60.4 619.96C60.48 619.667 60.56 619.413 60.64 619.2C61.1733 619.28 61.68 619.333 62.16 619.36C62.6667 619.387 63.32 619.4 64.12 619.4C65.8 619.4 67.3733 619.36 68.84 619.28C70.3067 619.173 71.6267 619.067 72.8 618.96C74 618.853 75.0267 618.76 75.88 618.68C76.7333 618.573 77.3867 618.52 77.84 618.52C78.4533 618.52 79 618.84 79.48 619.48C79.96 620.12 80.32 621.027 80.56 622.2C79.7333 622.12 79.0533 622.067 78.52 622.04C78.0133 622.013 77.56 622 77.16 622C75.6933 622 74.3467 622.08 73.12 622.24C71.92 622.373 70.76 622.52 69.64 622.68C69.48 622.92 69.2933 623.227 69.08 623.6C68.8933 623.973 68.64 624.493 68.32 625.16C68 625.827 67.6 626.667 67.12 627.68C66.6667 628.693 66.1067 629.96 65.44 631.48C66.4533 631.32 67.4 631.2 68.28 631.12C69.1867 631.013 69.9467 630.96 70.56 630.96ZM90.695 647.76C90.4017 648.213 89.935 648.573 89.295 648.84C88.6817 649.133 88.095 649.307 87.535 649.36C87.0817 648.827 86.575 648.107 86.015 647.2C85.455 646.267 84.9217 645.187 84.415 643.96C83.055 645.187 81.695 646.307 80.335 647.32C78.975 648.307 77.7083 649.147 76.535 649.84C76.2417 649.787 76.0017 649.627 75.815 649.36C75.6283 649.093 75.5217 648.747 75.495 648.32C76.0283 648.027 76.655 647.64 77.375 647.16C78.1217 646.68 78.8683 646.16 79.615 645.6C80.3883 645.013 81.1217 644.413 81.815 643.8C82.535 643.16 83.1483 642.547 83.655 641.96C83.2017 640.893 82.775 639.8 82.375 638.68C82.0017 637.533 81.6683 636.44 81.375 635.4C81.1083 634.333 80.895 633.373 80.735 632.52C80.575 631.64 80.495 630.933 80.495 630.4C80.495 630.027 80.535 629.787 80.615 629.68C80.7217 629.547 80.9483 629.48 81.295 629.48C81.5617 629.48 81.8817 629.507 82.255 629.56C82.655 629.613 83.055 629.68 83.455 629.76C83.855 629.84 84.255 629.933 84.655 630.04C85.055 630.12 85.4017 630.213 85.695 630.32C85.6417 630.613 85.615 630.867 85.615 631.08C85.615 631.293 85.615 631.6 85.615 632C85.615 633.04 85.695 634.107 85.855 635.2C86.0417 636.267 86.335 637.427 86.735 638.68C87.8283 637.427 88.8417 636.04 89.775 634.52C90.7083 632.973 91.655 631.133 92.615 629C93.2817 629.133 93.855 629.333 94.335 629.6C94.815 629.84 95.1217 630.107 95.255 630.4C94.9617 631.627 94.135 633.173 92.775 635.04C91.415 636.907 89.6817 638.893 87.575 641C87.9483 642.013 88.4017 643.093 88.935 644.24C89.4683 645.36 90.055 646.533 90.695 647.76ZM92.3663 661.24C91.9929 661.133 91.7796 660.733 91.7263 660.04C91.6196 659.693 91.5396 659.28 91.4863 658.8C91.4596 658.32 91.4463 657.773 91.4463 657.16C91.4463 656.6 91.5396 655.827 91.7263 654.84C91.9129 653.88 92.1663 652.787 92.4863 651.56C92.8329 650.333 93.2463 649.013 93.7263 647.6C94.2063 646.16 94.7396 644.707 95.3263 643.24C96.0463 641.4 96.6729 639.813 97.2063 638.48C97.7396 637.12 98.1796 635.947 98.5263 634.96C98.8996 633.973 99.1929 633.16 99.4063 632.52C99.6463 631.88 99.8329 631.333 99.9663 630.88C100.073 630.56 100.233 630.173 100.446 629.72C100.66 629.267 100.9 628.813 101.166 628.36C101.46 627.88 101.753 627.44 102.046 627.04C102.34 626.613 102.606 626.293 102.846 626.08C103.78 626.213 104.66 626.453 105.486 626.8C106.313 627.147 106.82 627.48 107.006 627.8C106.633 628.147 106.206 628.693 105.726 629.44C105.246 630.16 104.78 630.96 104.326 631.84C103.873 632.693 103.46 633.573 103.086 634.48C102.713 635.387 102.433 636.187 102.246 636.88C102.513 636.427 102.86 635.933 103.286 635.4C103.713 634.867 104.366 634.133 105.246 633.2C106.233 632.187 107.153 631.413 108.006 630.88C108.886 630.32 109.646 630.04 110.286 630.04C111.3 630.04 112.126 630.32 112.766 630.88C113.433 631.44 113.766 632.16 113.766 633.04C113.766 634.96 113.446 636.867 112.806 638.76C112.166 640.627 111.246 642.32 110.046 643.84C109.593 644.427 109.06 644.987 108.446 645.52C107.833 646.053 107.193 646.533 106.526 646.96C105.86 647.36 105.206 647.68 104.566 647.92C103.926 648.16 103.353 648.28 102.846 648.28C102.366 648.28 101.94 648.187 101.566 648C101.22 647.787 100.98 647.533 100.846 647.24C101.886 646.627 102.9 645.773 103.886 644.68C104.873 643.587 105.78 642.333 106.606 640.92C107.46 639.48 108.193 637.933 108.806 636.28C109.446 634.627 109.926 632.947 110.246 631.24C109.233 631.773 108.313 632.36 107.486 633C106.686 633.613 105.886 634.427 105.086 635.44C104.126 636.613 103.366 637.56 102.806 638.28C102.246 639 101.78 639.613 101.406 640.12C101.06 640.627 100.766 641.107 100.526 641.56C100.313 641.987 100.073 642.52 99.8063 643.16C99.4329 644.013 98.9929 645.147 98.4863 646.56C98.0063 647.947 97.4996 649.507 96.9663 651.24C96.4596 652.973 95.9396 654.813 95.4063 656.76C94.8996 658.733 94.4063 660.693 93.9263 662.64C93.6329 662.587 93.3796 662.373 93.1663 662C92.9529 661.76 92.7929 661.587 92.6863 661.48C92.6063 661.373 92.4996 661.293 92.3663 661.24ZM129.528 631.44C129.421 633.093 129.128 634.52 128.648 635.72C128.168 636.893 127.475 637.933 126.568 638.84C125.688 639.72 124.608 640.52 123.328 641.24C122.048 641.96 120.555 642.653 118.848 643.32C118.848 643.48 118.835 643.653 118.808 643.84C118.808 644 118.808 644.173 118.808 644.36C118.808 644.707 118.835 645.067 118.888 645.44C118.941 645.813 119.035 646.16 119.168 646.48C119.301 646.8 119.488 647.067 119.728 647.28C119.968 647.467 120.275 647.56 120.648 647.56C121.368 647.56 122.075 647.4 122.768 647.08C123.461 646.76 124.115 646.373 124.728 645.92C125.368 645.44 125.955 644.933 126.488 644.4C127.048 643.84 127.541 643.333 127.968 642.88C128.235 643.12 128.461 643.347 128.648 643.56C127.448 645.16 126.128 646.493 124.688 647.56C123.275 648.6 121.928 649.267 120.648 649.56C118.808 649.347 117.368 648.68 116.328 647.56C115.315 646.413 114.808 645.04 114.808 643.44C114.808 642.347 114.955 641.24 115.248 640.12C115.568 638.973 115.995 637.88 116.528 636.84C117.088 635.773 117.728 634.773 118.448 633.84C119.195 632.907 119.981 632.093 120.808 631.4C121.661 630.707 122.528 630.16 123.408 629.76C124.315 629.36 125.208 629.16 126.088 629.16C127.315 629.32 128.461 630.08 129.528 631.44ZM126.768 632.76C126.048 632.867 125.301 633.16 124.528 633.64C123.755 634.12 123.021 634.76 122.328 635.56C121.661 636.36 121.048 637.293 120.488 638.36C119.928 639.427 119.488 640.573 119.168 641.8C121.301 640.733 123.075 639.427 124.488 637.88C125.901 636.307 126.661 634.6 126.768 632.76ZM137.86 628.6C138.553 628.813 139.207 629.293 139.82 630.04C140.433 630.76 140.887 631.56 141.18 632.44C140.887 633.16 140.433 634.027 139.82 635.04C139.207 636.053 138.593 637.093 137.98 638.16C137.367 639.2 136.807 640.2 136.3 641.16C135.82 642.093 135.54 642.867 135.46 643.48C135.887 643.027 136.353 642.507 136.86 641.92C137.393 641.307 137.9 640.707 138.38 640.12C138.887 639.507 139.353 638.96 139.78 638.48C140.207 637.973 140.54 637.6 140.78 637.36C141.287 636.827 141.887 636.213 142.58 635.52C143.273 634.8 143.993 634.133 144.74 633.52C145.513 632.88 146.287 632.347 147.06 631.92C147.833 631.467 148.54 631.24 149.18 631.24C149.873 631.24 150.447 631.48 150.9 631.96C151.38 632.413 151.753 632.893 152.02 633.4C152.02 633.453 151.913 633.533 151.7 633.64C151.513 633.72 151.233 633.973 150.86 634.4C150.487 634.88 150.06 635.547 149.58 636.4C149.127 637.227 148.673 638.133 148.22 639.12C147.793 640.08 147.433 641.067 147.14 642.08C146.847 643.093 146.7 644.013 146.7 644.84C146.7 645.507 146.78 645.933 146.94 646.12C147.127 646.307 147.38 646.4 147.7 646.4C147.993 646.4 148.3 646.333 148.62 646.2C148.94 646.067 149.193 646 149.38 646C149.487 646.053 149.567 646.173 149.62 646.36C149.7 646.52 149.74 646.667 149.74 646.8C149.527 646.987 149.273 647.173 148.98 647.36C148.687 647.547 148.38 647.72 148.06 647.88C147.74 648.04 147.42 648.173 147.1 648.28C146.807 648.387 146.54 648.44 146.3 648.44C145.527 648.44 144.887 648.32 144.38 648.08C143.9 647.867 143.513 647.573 143.22 647.2C142.953 646.827 142.767 646.387 142.66 645.88C142.553 645.347 142.5 644.787 142.5 644.2C142.5 643.88 142.527 643.52 142.58 643.12C142.633 642.72 142.74 642.253 142.9 641.72C143.06 641.16 143.287 640.507 143.58 639.76C143.873 638.987 144.247 638.067 144.7 637C144.647 637 144.287 637.187 143.62 637.56C142.953 637.933 142.233 638.507 141.46 639.28C140.207 640.48 139.073 641.667 138.06 642.84C137.073 644.013 136.06 645.32 135.02 646.76C134.433 647.587 133.913 648.28 133.46 648.84C133.033 649.427 132.66 649.813 132.34 650C131.78 649.68 131.367 649.227 131.1 648.64C130.833 648.08 130.633 647.493 130.5 646.88C130.5 646.373 130.567 645.733 130.7 644.96C130.86 644.187 131.06 643.333 131.3 642.4C131.567 641.44 131.887 640.44 132.26 639.4C132.633 638.36 133.047 637.32 133.5 636.28C134.513 633.933 135.433 632.093 136.26 630.76C137.113 629.427 137.647 628.707 137.86 628.6ZM166.782 632.08C166.755 632.587 166.662 633.12 166.502 633.68C166.368 634.213 166.195 634.707 165.982 635.16C165.768 635.587 165.542 635.947 165.302 636.24C165.062 636.533 164.835 636.68 164.622 636.68C164.328 636.653 164.155 636.453 164.102 636.08C164.102 636 164.128 635.88 164.182 635.72C164.262 635.533 164.342 635.333 164.422 635.12C164.502 634.907 164.568 634.693 164.622 634.48C164.702 634.267 164.742 634.08 164.742 633.92C164.742 633.547 164.648 633.24 164.462 633C164.302 632.733 164.075 632.6 163.782 632.6C162.715 632.6 161.902 633.267 161.342 634.6C160.782 635.933 160.502 637.893 160.502 640.48C160.502 640.747 160.515 640.907 160.542 640.96C161.102 640.933 161.595 640.92 162.022 640.92C162.475 640.893 162.915 640.88 163.342 640.88C163.368 640.933 163.382 641.04 163.382 641.2C163.382 641.44 163.328 641.613 163.222 641.72C162.608 641.853 162.115 641.973 161.742 642.08C161.395 642.16 161.128 642.24 160.942 642.32C160.755 642.4 160.635 642.493 160.582 642.6C160.555 642.68 160.542 642.8 160.542 642.96C160.542 643.173 160.542 643.387 160.542 643.6C160.568 643.813 160.582 644.08 160.582 644.4C160.582 646.64 159.968 648.44 158.742 649.8C157.542 651.16 155.862 651.947 153.702 652.16C153.328 652.133 152.942 652.027 152.542 651.84C152.142 651.653 151.755 651.413 151.382 651.12C151.035 650.827 150.728 650.493 150.462 650.12C150.195 649.773 150.008 649.413 149.902 649.04C149.902 648.027 150.115 647.067 150.542 646.16C150.968 645.227 151.542 644.413 152.262 643.72C153.008 643 153.875 642.427 154.862 642C155.875 641.547 156.968 641.28 158.142 641.2C158.142 640.533 158.075 639.88 157.942 639.24C157.808 638.6 157.662 637.987 157.502 637.4C157.368 636.787 157.235 636.2 157.102 635.64C156.968 635.053 156.902 634.48 156.902 633.92C156.902 633.2 157.048 632.493 157.342 631.8C157.635 631.08 158.022 630.427 158.502 629.84C158.982 629.227 159.542 628.707 160.182 628.28C160.822 627.853 161.488 627.56 162.182 627.4C162.475 627.48 162.862 627.72 163.342 628.12C163.848 628.493 164.342 628.92 164.822 629.4C165.302 629.88 165.728 630.373 166.102 630.88C166.475 631.36 166.702 631.76 166.782 632.08ZM153.582 650.32C154.222 650.053 154.822 649.667 155.382 649.16C155.968 648.653 156.475 648.08 156.902 647.44C157.328 646.8 157.662 646.12 157.902 645.4C158.168 644.68 158.302 643.973 158.302 643.28C157.768 643.36 157.182 643.613 156.542 644.04C155.902 644.44 155.302 644.933 154.742 645.52C154.182 646.08 153.715 646.667 153.342 647.28C152.968 647.893 152.782 648.427 152.782 648.88C152.782 649.467 153.048 649.947 153.582 650.32ZM181.13 631.44C181.023 633.093 180.73 634.52 180.25 635.72C179.77 636.893 179.076 637.933 178.17 638.84C177.29 639.72 176.21 640.52 174.93 641.24C173.65 641.96 172.156 642.653 170.45 643.32C170.45 643.48 170.436 643.653 170.41 643.84C170.41 644 170.41 644.173 170.41 644.36C170.41 644.707 170.436 645.067 170.49 645.44C170.543 645.813 170.636 646.16 170.77 646.48C170.903 646.8 171.09 647.067 171.33 647.28C171.57 647.467 171.876 647.56 172.25 647.56C172.97 647.56 173.676 647.4 174.37 647.08C175.063 646.76 175.716 646.373 176.33 645.92C176.97 645.44 177.556 644.933 178.09 644.4C178.65 643.84 179.143 643.333 179.57 642.88C179.836 643.12 180.063 643.347 180.25 643.56C179.05 645.16 177.73 646.493 176.29 647.56C174.876 648.6 173.53 649.267 172.25 649.56C170.41 649.347 168.97 648.68 167.93 647.56C166.916 646.413 166.41 645.04 166.41 643.44C166.41 642.347 166.556 641.24 166.85 640.12C167.17 638.973 167.596 637.88 168.13 636.84C168.69 635.773 169.33 634.773 170.05 633.84C170.796 632.907 171.583 632.093 172.41 631.4C173.263 630.707 174.13 630.16 175.01 629.76C175.916 629.36 176.81 629.16 177.69 629.16C178.916 629.32 180.063 630.08 181.13 631.44ZM178.37 632.76C177.65 632.867 176.903 633.16 176.13 633.64C175.356 634.12 174.623 634.76 173.93 635.56C173.263 636.36 172.65 637.293 172.09 638.36C171.53 639.427 171.09 640.573 170.77 641.8C172.903 640.733 174.676 639.427 176.09 637.88C177.503 636.307 178.263 634.6 178.37 632.76ZM199.662 650.96C199.608 650.987 199.555 651 199.502 651C199.448 651 199.342 651 199.182 651C198.808 651 198.368 650.933 197.862 650.8C197.382 650.693 196.902 650.547 196.422 650.36C195.968 650.2 195.568 650.013 195.222 649.8C194.902 649.587 194.702 649.4 194.622 649.24C194.595 648.867 194.582 648.48 194.582 648.08C194.582 647.68 194.582 647.293 194.582 646.92C194.582 643.933 194.795 640.813 195.222 637.56C195.675 634.307 196.408 630.787 197.422 627C197.528 626.627 197.635 626.16 197.742 625.6C197.875 625.013 198.008 624.387 198.142 623.72C197.502 624.227 196.742 625.04 195.862 626.16C194.982 627.253 194.048 628.56 193.062 630.08C192.102 631.573 191.128 633.227 190.142 635.04C189.182 636.827 188.302 638.653 187.502 640.52C186.702 642.36 186.008 644.187 185.422 646C184.862 647.813 184.515 649.493 184.382 651.04C183.102 650.667 182.208 650.293 181.702 649.92C181.222 649.547 180.982 649.093 180.982 648.56C180.982 648.08 181.128 647.4 181.422 646.52C181.715 645.64 182.128 644.6 182.662 643.4C183.195 642.2 183.848 640.867 184.622 639.4C185.395 637.907 186.248 636.307 187.182 634.6C188.248 632.653 189.288 630.827 190.302 629.12C191.342 627.413 192.355 625.867 193.342 624.48C194.328 623.093 195.288 621.893 196.222 620.88C197.182 619.867 198.128 619.093 199.062 618.56C199.435 618.56 199.928 618.653 200.542 618.84C201.182 619.027 201.795 619.253 202.382 619.52C202.995 619.787 203.528 620.067 203.982 620.36C204.462 620.627 204.728 620.853 204.782 621.04C204.408 621.787 203.968 622.907 203.462 624.4C202.955 625.893 202.435 627.587 201.902 629.48C201.395 631.373 200.902 633.387 200.422 635.52C199.968 637.627 199.608 639.653 199.342 641.6C199.955 640.133 200.662 638.613 201.462 637.04C202.288 635.44 203.155 633.867 204.062 632.32C204.968 630.747 205.888 629.227 206.822 627.76C207.782 626.293 208.715 624.96 209.622 623.76C210.528 622.533 211.368 621.467 212.142 620.56C212.942 619.653 213.648 618.987 214.262 618.56C214.635 618.56 215.128 618.653 215.742 618.84C216.382 619.027 216.995 619.253 217.582 619.52C218.195 619.787 218.728 620.067 219.182 620.36C219.662 620.627 219.928 620.853 219.982 621.04C219.128 622.56 218.382 624.413 217.742 626.6C217.102 628.787 216.555 631.08 216.102 633.48C215.675 635.88 215.342 638.267 215.102 640.64C214.888 642.987 214.782 645.093 214.782 646.96C214.782 647.573 214.782 648.213 214.782 648.88C214.782 649.547 214.808 650.24 214.862 650.96C214.488 650.96 214.035 650.907 213.502 650.8C212.995 650.72 212.488 650.6 211.982 650.44C211.502 650.28 211.062 650.093 210.662 649.88C210.262 649.693 209.982 649.48 209.822 649.24C209.795 648.867 209.782 648.48 209.782 648.08C209.782 647.68 209.782 647.293 209.782 646.92C209.782 643.933 209.995 640.813 210.422 637.56C210.875 634.307 211.608 630.787 212.622 627C212.728 626.627 212.848 626.12 212.982 625.48C213.115 624.84 213.248 624.173 213.382 623.48C212.635 623.853 211.782 624.573 210.822 625.64C209.888 626.68 208.928 627.96 207.942 629.48C206.982 630.973 206.022 632.64 205.062 634.48C204.128 636.32 203.275 638.2 202.502 640.12C201.755 642.013 201.115 643.907 200.582 645.8C200.075 647.667 199.768 649.387 199.662 650.96ZM233.461 631.84C233.728 631.84 234.035 631.893 234.381 632C234.755 632.08 235.088 632.2 235.381 632.36C235.675 632.493 235.915 632.64 236.101 632.8C236.315 632.96 236.421 633.107 236.421 633.24C235.888 634.36 235.395 635.493 234.941 636.64C234.488 637.76 234.101 638.84 233.781 639.88C233.461 640.92 233.208 641.893 233.021 642.8C232.861 643.707 232.781 644.493 232.781 645.16C232.781 645.907 232.861 646.533 233.021 647.04C233.181 647.52 233.448 647.867 233.821 648.08C233.501 648.293 233.088 648.467 232.581 648.6C232.075 648.733 231.621 648.8 231.221 648.8C229.781 648.8 229.061 647.813 229.061 645.84C229.061 644.32 229.568 642.24 230.581 639.6C230.048 640.827 229.435 641.987 228.741 643.08C228.048 644.147 227.341 645.093 226.621 645.92C225.901 646.747 225.168 647.427 224.421 647.96C223.701 648.467 223.035 648.773 222.421 648.88C221.435 648.827 220.635 648.36 220.021 647.48C219.408 646.573 219.101 645.427 219.101 644.04C219.101 642.547 219.421 640.973 220.061 639.32C220.701 637.667 221.515 636.133 222.501 634.72C223.515 633.307 224.608 632.133 225.781 631.2C226.955 630.24 228.088 629.733 229.181 629.68C229.448 629.76 229.741 629.92 230.061 630.16C230.408 630.4 230.728 630.68 231.021 631C231.341 631.32 231.608 631.653 231.821 632C232.035 632.32 232.155 632.6 232.181 632.84C231.115 633 230.008 633.52 228.861 634.4C227.741 635.28 226.715 636.347 225.781 637.6C224.875 638.827 224.128 640.147 223.541 641.56C222.955 642.973 222.661 644.293 222.661 645.52C222.661 646.027 222.848 646.347 223.221 646.48C223.995 646.32 224.888 645.667 225.901 644.52C226.915 643.347 228.141 641.547 229.581 639.12C229.848 638.64 230.141 638.107 230.461 637.52C230.808 636.933 231.155 636.32 231.501 635.68C231.848 635.04 232.181 634.4 232.501 633.76C232.848 633.093 233.168 632.453 233.461 631.84ZM244.93 628.6C245.624 628.813 246.277 629.293 246.89 630.04C247.504 630.76 247.957 631.56 248.25 632.44C247.957 633.16 247.504 634.027 246.89 635.04C246.277 636.053 245.664 637.093 245.05 638.16C244.437 639.2 243.877 640.2 243.37 641.16C242.89 642.093 242.61 642.867 242.53 643.48C242.957 643.027 243.424 642.507 243.93 641.92C244.464 641.307 244.97 640.707 245.45 640.12C245.957 639.507 246.424 638.96 246.85 638.48C247.277 637.973 247.61 637.6 247.85 637.36C248.357 636.827 248.957 636.213 249.65 635.52C250.344 634.8 251.064 634.133 251.81 633.52C252.584 632.88 253.357 632.347 254.13 631.92C254.904 631.467 255.61 631.24 256.25 631.24C256.944 631.24 257.517 631.48 257.97 631.96C258.45 632.413 258.824 632.893 259.09 633.4C259.09 633.453 258.984 633.533 258.77 633.64C258.584 633.72 258.304 633.973 257.93 634.4C257.557 634.88 257.13 635.547 256.65 636.4C256.197 637.227 255.744 638.133 255.29 639.12C254.864 640.08 254.504 641.067 254.21 642.08C253.917 643.093 253.77 644.013 253.77 644.84C253.77 645.507 253.85 645.933 254.01 646.12C254.197 646.307 254.45 646.4 254.77 646.4C255.064 646.4 255.37 646.333 255.69 646.2C256.01 646.067 256.264 646 256.45 646C256.557 646.053 256.637 646.173 256.69 646.36C256.77 646.52 256.81 646.667 256.81 646.8C256.597 646.987 256.344 647.173 256.05 647.36C255.757 647.547 255.45 647.72 255.13 647.88C254.81 648.04 254.49 648.173 254.17 648.28C253.877 648.387 253.61 648.44 253.37 648.44C252.597 648.44 251.957 648.32 251.45 648.08C250.97 647.867 250.584 647.573 250.29 647.2C250.024 646.827 249.837 646.387 249.73 645.88C249.624 645.347 249.57 644.787 249.57 644.2C249.57 643.88 249.597 643.52 249.65 643.12C249.704 642.72 249.81 642.253 249.97 641.72C250.13 641.16 250.357 640.507 250.65 639.76C250.944 638.987 251.317 638.067 251.77 637C251.717 637 251.357 637.187 250.69 637.56C250.024 637.933 249.304 638.507 248.53 639.28C247.277 640.48 246.144 641.667 245.13 642.84C244.144 644.013 243.13 645.32 242.09 646.76C241.504 647.587 240.984 648.28 240.53 648.84C240.104 649.427 239.73 649.813 239.41 650C238.85 649.68 238.437 649.227 238.17 648.64C237.904 648.08 237.704 647.493 237.57 646.88C237.57 646.373 237.637 645.733 237.77 644.96C237.93 644.187 238.13 643.333 238.37 642.4C238.637 641.44 238.957 640.44 239.33 639.4C239.704 638.36 240.117 637.32 240.57 636.28C241.584 633.933 242.504 632.093 243.33 630.76C244.184 629.427 244.717 628.707 244.93 628.6ZM273.852 631.84C274.119 631.84 274.425 631.893 274.772 632C275.145 632.08 275.479 632.2 275.772 632.36C276.065 632.493 276.305 632.64 276.492 632.8C276.705 632.96 276.812 633.107 276.812 633.24C276.279 634.36 275.785 635.493 275.332 636.64C274.879 637.76 274.492 638.84 274.172 639.88C273.852 640.92 273.599 641.893 273.412 642.8C273.252 643.707 273.172 644.493 273.172 645.16C273.172 645.907 273.252 646.533 273.412 647.04C273.572 647.52 273.839 647.867 274.212 648.08C273.892 648.293 273.479 648.467 272.972 648.6C272.465 648.733 272.012 648.8 271.612 648.8C270.172 648.8 269.452 647.813 269.452 645.84C269.452 644.32 269.959 642.24 270.972 639.6C270.439 640.827 269.825 641.987 269.132 643.08C268.439 644.147 267.732 645.093 267.012 645.92C266.292 646.747 265.559 647.427 264.812 647.96C264.092 648.467 263.425 648.773 262.812 648.88C261.825 648.827 261.025 648.36 260.412 647.48C259.799 646.573 259.492 645.427 259.492 644.04C259.492 642.547 259.812 640.973 260.452 639.32C261.092 637.667 261.905 636.133 262.892 634.72C263.905 633.307 264.999 632.133 266.172 631.2C267.345 630.24 268.479 629.733 269.572 629.68C269.839 629.76 270.132 629.92 270.452 630.16C270.799 630.4 271.119 630.68 271.412 631C271.732 631.32 271.999 631.653 272.212 632C272.425 632.32 272.545 632.6 272.572 632.84C271.505 633 270.399 633.52 269.252 634.4C268.132 635.28 267.105 636.347 266.172 637.6C265.265 638.827 264.519 640.147 263.932 641.56C263.345 642.973 263.052 644.293 263.052 645.52C263.052 646.027 263.239 646.347 263.612 646.48C264.385 646.32 265.279 645.667 266.292 644.52C267.305 643.347 268.532 641.547 269.972 639.12C270.239 638.64 270.532 638.107 270.852 637.52C271.199 636.933 271.545 636.32 271.892 635.68C272.239 635.04 272.572 634.4 272.892 633.76C273.239 633.093 273.559 632.453 273.852 631.84ZM270.527 659.92C270.527 659.76 270.58 659.613 270.687 659.48C270.793 659.347 270.913 659.213 271.047 659.08C271.367 659.373 271.647 659.6 271.887 659.76C272.1 659.92 272.313 660.053 272.527 660.16C272.713 660.267 272.913 660.333 273.127 660.36C273.34 660.387 273.593 660.4 273.887 660.4C275.273 660.4 276.593 660.027 277.847 659.28C279.1 658.56 280.273 657.507 281.367 656.12C282.487 654.733 283.5 653.04 284.407 651.04C285.313 649.04 286.113 646.773 286.807 644.24C286.487 644.56 286.087 644.92 285.607 645.32C285.153 645.693 284.673 646.053 284.167 646.4C283.66 646.747 283.153 647.067 282.647 647.36C282.167 647.653 281.753 647.867 281.407 648C280.953 647.92 280.527 647.733 280.127 647.44C279.753 647.12 279.42 646.733 279.127 646.28C278.833 645.827 278.607 645.32 278.447 644.76C278.287 644.173 278.207 643.56 278.207 642.92C278.207 641.88 278.393 640.813 278.767 639.72C279.167 638.627 279.687 637.56 280.327 636.52C280.967 635.453 281.713 634.453 282.567 633.52C283.447 632.587 284.367 631.773 285.327 631.08C286.313 630.387 287.3 629.84 288.287 629.44C289.3 629.013 290.287 628.8 291.247 628.8C292.18 628.8 292.873 629 293.327 629.4C293.807 629.773 294.153 630.427 294.367 631.36C294.073 631.2 293.7 631.12 293.247 631.12C292.607 631.12 291.86 631.373 291.007 631.88C290.18 632.387 289.327 633.053 288.447 633.88C287.593 634.68 286.74 635.613 285.887 636.68C285.033 637.72 284.273 638.787 283.607 639.88C282.967 640.973 282.433 642.04 282.007 643.08C281.607 644.12 281.407 645.053 281.407 645.88C281.407 646.067 281.42 646.187 281.447 646.24C281.473 646.267 281.513 646.28 281.567 646.28C281.807 646.28 282.127 646.147 282.527 645.88C282.953 645.613 283.42 645.28 283.927 644.88C284.46 644.453 285.007 643.973 285.567 643.44C286.127 642.88 286.66 642.32 287.167 641.76C288.313 640.48 289.353 639.053 290.287 637.48C291.247 635.88 292.007 634.333 292.567 632.84C293.287 632.893 293.927 633.013 294.487 633.2C295.047 633.387 295.433 633.587 295.647 633.8C294.74 635.88 294.007 637.627 293.447 639.04C292.913 640.453 292.447 641.707 292.047 642.8C291.327 644.72 290.647 646.467 290.007 648.04C289.393 649.64 288.753 651.107 288.087 652.44C287.447 653.8 286.74 655.053 285.967 656.2C285.22 657.373 284.367 658.493 283.407 659.56C282.953 660.067 282.433 660.507 281.847 660.88C281.287 661.28 280.7 661.613 280.087 661.88C279.5 662.147 278.913 662.347 278.327 662.48C277.767 662.613 277.247 662.68 276.767 662.68C276.127 662.68 275.473 662.6 274.807 662.44C274.14 662.307 273.527 662.107 272.967 661.84C272.38 661.6 271.873 661.307 271.447 660.96C271.02 660.64 270.713 660.293 270.527 659.92ZM310.934 631.44C310.828 633.093 310.534 634.52 310.054 635.72C309.574 636.893 308.881 637.933 307.974 638.84C307.094 639.72 306.014 640.52 304.734 641.24C303.454 641.96 301.961 642.653 300.254 643.32C300.254 643.48 300.241 643.653 300.214 643.84C300.214 644 300.214 644.173 300.214 644.36C300.214 644.707 300.241 645.067 300.294 645.44C300.348 645.813 300.441 646.16 300.574 646.48C300.708 646.8 300.894 647.067 301.134 647.28C301.374 647.467 301.681 647.56 302.054 647.56C302.774 647.56 303.481 647.4 304.174 647.08C304.868 646.76 305.521 646.373 306.134 645.92C306.774 645.44 307.361 644.933 307.894 644.4C308.454 643.84 308.948 643.333 309.374 642.88C309.641 643.12 309.868 643.347 310.054 643.56C308.854 645.16 307.534 646.493 306.094 647.56C304.681 648.6 303.334 649.267 302.054 649.56C300.214 649.347 298.774 648.68 297.734 647.56C296.721 646.413 296.214 645.04 296.214 643.44C296.214 642.347 296.361 641.24 296.654 640.12C296.974 638.973 297.401 637.88 297.934 636.84C298.494 635.773 299.134 634.773 299.854 633.84C300.601 632.907 301.388 632.093 302.214 631.4C303.068 630.707 303.934 630.16 304.814 629.76C305.721 629.36 306.614 629.16 307.494 629.16C308.721 629.32 309.868 630.08 310.934 631.44ZM308.174 632.76C307.454 632.867 306.708 633.16 305.934 633.64C305.161 634.12 304.428 634.76 303.734 635.56C303.068 636.36 302.454 637.293 301.894 638.36C301.334 639.427 300.894 640.573 300.574 641.8C302.708 640.733 304.481 639.427 305.894 637.88C307.308 636.307 308.068 634.6 308.174 632.76ZM311.826 647.2C311.96 646.427 312.186 645.413 312.506 644.16C312.853 642.88 313.253 641.533 313.706 640.12C314.16 638.68 314.64 637.24 315.146 635.8C315.653 634.36 316.146 633.067 316.626 631.92C316.973 631.093 317.28 630.453 317.546 630C317.813 629.52 318.106 629.12 318.426 628.8C318.8 628.853 319.186 628.947 319.586 629.08C319.986 629.213 320.373 629.373 320.746 629.56C321.12 629.747 321.453 629.947 321.746 630.16C322.04 630.347 322.266 630.533 322.426 630.72C321.706 631.573 321.066 632.547 320.506 633.64C319.973 634.733 319.426 636.133 318.866 637.84C320.306 636.56 321.573 635.333 322.666 634.16C323.786 632.987 324.826 631.68 325.786 630.24C325.946 630.107 326.226 630.04 326.626 630.04C327 630.04 327.36 630.107 327.706 630.24C328.053 630.347 328.293 630.507 328.426 630.72C327.946 632 327.706 633.267 327.706 634.52C327.706 635.693 327.88 636.573 328.226 637.16C328.2 637.32 328.013 637.627 327.666 638.08C327.346 638.533 326.986 638.96 326.586 639.36C325.866 638.987 325.226 638.48 324.666 637.84C324.106 637.173 323.693 636.453 323.426 635.68C322.173 636.56 321.106 637.427 320.226 638.28C319.346 639.107 318.586 640.04 317.946 641.08C317.333 642.093 316.8 643.267 316.346 644.6C315.92 645.933 315.506 647.52 315.106 649.36C314.866 649.333 314.573 649.24 314.226 649.08C313.906 648.947 313.573 648.773 313.226 648.56C312.906 648.347 312.613 648.12 312.346 647.88C312.08 647.64 311.906 647.413 311.826 647.2Z" fill="black"/>
<path d="M216 175.947C216 195.216 200.106 210.837 180.5 210.837C160.894 210.837 145 195.216 145 175.947C145 156.678 160.894 140 180.5 140C200.106 140 216 156.678 216 175.947Z" fill="#CC8787"/>
<path d="M156.96 162.989C155.893 162.989 155.067 162.696 154.48 162.109C153.92 161.496 153.64 160.762 153.64 159.909C153.64 159.696 153.667 159.442 153.72 159.149C153.8 158.856 153.893 158.602 154 158.389C154.347 158.549 154.853 158.669 155.52 158.749C156.213 158.802 157.013 158.829 157.92 158.829C159.28 158.829 160.813 158.776 162.52 158.669C164.253 158.536 165.907 158.402 167.48 158.269C169.053 158.136 170.44 158.016 171.64 157.909C172.84 157.776 173.613 157.709 173.96 157.709C174.947 157.709 175.653 158.082 176.08 158.829C176.533 159.549 176.867 160.522 177.08 161.749C176.387 161.696 175.693 161.656 175 161.629C174.333 161.576 173.76 161.549 173.28 161.549C172.427 161.549 171.56 161.576 170.68 161.629C169.827 161.682 168.96 161.762 168.08 161.869C167.707 162.642 167.293 163.562 166.84 164.629C166.387 165.669 165.933 166.762 165.48 167.909C165.053 169.056 164.64 170.202 164.24 171.349C163.84 172.469 163.493 173.482 163.2 174.389C162.613 176.149 162.093 177.776 161.64 179.269C161.213 180.762 160.827 182.162 160.48 183.469C160.16 184.749 159.88 185.976 159.64 187.149C159.4 188.322 159.187 189.469 159 190.589C157.213 190.322 155.72 189.202 154.52 187.229C154.733 186.402 154.987 185.509 155.28 184.549C155.6 183.562 155.96 182.456 156.36 181.229C156.787 179.976 157.28 178.562 157.84 176.989C158.4 175.416 159.04 173.629 159.76 171.629C160.027 170.882 160.307 170.109 160.6 169.309C160.893 168.482 161.173 167.669 161.44 166.869C161.733 166.069 161.987 165.296 162.2 164.549C162.44 163.802 162.64 163.122 162.8 162.509C161.68 162.642 160.613 162.762 159.6 162.869C158.613 162.949 157.733 162.989 156.96 162.989ZM187.904 190.189C187.85 190.216 187.797 190.229 187.744 190.229C187.69 190.229 187.584 190.229 187.424 190.229C187.05 190.229 186.61 190.162 186.104 190.029C185.624 189.922 185.144 189.776 184.664 189.589C184.21 189.429 183.81 189.242 183.464 189.029C183.144 188.816 182.944 188.629 182.864 188.469C182.837 188.096 182.824 187.709 182.824 187.309C182.824 186.909 182.824 186.522 182.824 186.149C182.824 183.162 183.037 180.042 183.464 176.789C183.917 173.536 184.65 170.016 185.664 166.229C185.77 165.856 185.877 165.389 185.984 164.829C186.117 164.242 186.25 163.616 186.384 162.949C185.744 163.456 184.984 164.269 184.104 165.389C183.224 166.482 182.29 167.789 181.304 169.309C180.344 170.802 179.37 172.456 178.384 174.269C177.424 176.056 176.544 177.882 175.744 179.749C174.944 181.589 174.25 183.416 173.664 185.229C173.104 187.042 172.757 188.722 172.624 190.269C171.344 189.896 170.45 189.522 169.944 189.149C169.464 188.776 169.224 188.322 169.224 187.789C169.224 187.309 169.37 186.629 169.664 185.749C169.957 184.869 170.37 183.829 170.904 182.629C171.437 181.429 172.09 180.096 172.864 178.629C173.637 177.136 174.49 175.536 175.424 173.829C176.49 171.882 177.53 170.056 178.544 168.349C179.584 166.642 180.597 165.096 181.584 163.709C182.57 162.322 183.53 161.122 184.464 160.109C185.424 159.096 186.37 158.322 187.304 157.789C187.677 157.789 188.17 157.882 188.784 158.069C189.424 158.256 190.037 158.482 190.624 158.749C191.237 159.016 191.77 159.296 192.224 159.589C192.704 159.856 192.97 160.082 193.024 160.269C192.65 161.016 192.21 162.136 191.704 163.629C191.197 165.122 190.677 166.816 190.144 168.709C189.637 170.602 189.144 172.616 188.664 174.749C188.21 176.856 187.85 178.882 187.584 180.829C188.197 179.362 188.904 177.842 189.704 176.269C190.53 174.669 191.397 173.096 192.304 171.549C193.21 169.976 194.13 168.456 195.064 166.989C196.024 165.522 196.957 164.189 197.864 162.989C198.77 161.762 199.61 160.696 200.384 159.789C201.184 158.882 201.89 158.216 202.504 157.789C202.877 157.789 203.37 157.882 203.984 158.069C204.624 158.256 205.237 158.482 205.824 158.749C206.437 159.016 206.97 159.296 207.424 159.589C207.904 159.856 208.17 160.082 208.224 160.269C207.37 161.789 206.624 163.642 205.984 165.829C205.344 168.016 204.797 170.309 204.344 172.709C203.917 175.109 203.584 177.496 203.344 179.869C203.13 182.216 203.024 184.322 203.024 186.189C203.024 186.802 203.024 187.442 203.024 188.109C203.024 188.776 203.05 189.469 203.104 190.189C202.73 190.189 202.277 190.136 201.744 190.029C201.237 189.949 200.73 189.829 200.224 189.669C199.744 189.509 199.304 189.322 198.904 189.109C198.504 188.922 198.224 188.709 198.064 188.469C198.037 188.096 198.024 187.709 198.024 187.309C198.024 186.909 198.024 186.522 198.024 186.149C198.024 183.162 198.237 180.042 198.664 176.789C199.117 173.536 199.85 170.016 200.864 166.229C200.97 165.856 201.09 165.349 201.224 164.709C201.357 164.069 201.49 163.402 201.624 162.709C200.877 163.082 200.024 163.802 199.064 164.869C198.13 165.909 197.17 167.189 196.184 168.709C195.224 170.202 194.264 171.869 193.304 173.709C192.37 175.549 191.517 177.429 190.744 179.349C189.997 181.242 189.357 183.136 188.824 185.029C188.317 186.896 188.01 188.616 187.904 190.189Z" fill="black"/>
</g>
<g clip-path="url(#clip1_0_1)">
<rect width="375" height="812" transform="translate(405)" fill="white"/>
<path d="M419 12C419 10.4087 419.632 8.88258 420.757 7.75736C421.883 6.63214 423.409 6 425 6H449C450.591 6 452.117 6.63214 453.243 7.75736C454.368 8.88258 455 10.4087 455 12V41.649L447.515 49.209L444.713 46.35C444.302 45.9182 443.809 45.5725 443.262 45.333C442.716 45.0935 442.128 44.9649 441.532 44.9548C440.935 44.9446 440.343 45.0531 439.789 45.2738C439.235 45.4946 438.731 45.8233 438.305 46.2408C437.879 46.6583 437.54 47.1562 437.309 47.7057C437.077 48.2553 436.957 48.8453 436.955 49.4417C436.953 50.038 437.07 50.6288 437.299 51.1796C437.528 51.7303 437.863 52.2302 438.287 52.65L439.61 54H425C423.409 54 421.883 53.3679 420.757 52.2426C419.632 51.1174 419 49.5913 419 48V12ZM434 28.5C434 28.8978 434.158 29.2794 434.439 29.5607C434.721 29.842 435.102 30 435.5 30H447.5C447.898 30 448.279 29.842 448.561 29.5607C448.842 29.2794 449 28.8978 449 28.5C449 28.1022 448.842 27.7206 448.561 27.4393C448.279 27.158 447.898 27 447.5 27H435.5C435.102 27 434.721 27.158 434.439 27.4393C434.158 27.7206 434 28.1022 434 28.5ZM435.5 15C435.102 15 434.721 15.158 434.439 15.4393C434.158 15.7206 434 16.1022 434 16.5C434 16.8978 434.158 17.2794 434.439 17.5607C434.721 17.842 435.102 18 435.5 18H447.5C447.898 18 448.279 17.842 448.561 17.5607C448.842 17.2794 449 16.8978 449 16.5C449 16.1022 448.842 15.7206 448.561 15.4393C448.279 15.158 447.898 15 447.5 15H435.5ZM434 40.5C434 40.8978 434.158 41.2794 434.439 41.5607C434.721 41.842 435.102 42 435.5 42H447.5C447.898 42 448.279 41.842 448.561 41.5607C448.842 41.2794 449 40.8978 449 40.5C449 40.1022 448.842 39.7206 448.561 39.4393C448.279 39.158 447.898 39 447.5 39H435.5C435.102 39 434.721 39.158 434.439 39.4393C434.158 39.7206 434 40.1022 434 40.5ZM428 31.5C428.796 31.5 429.559 31.1839 430.121 30.6213C430.684 30.0587 431 29.2956 431 28.5C431 27.7044 430.684 26.9413 430.121 26.3787C429.559 25.8161 428.796 25.5 428 25.5C427.204 25.5 426.441 25.8161 425.879 26.3787C425.316 26.9413 425 27.7044 425 28.5C425 29.2956 425.316 30.0587 425.879 30.6213C426.441 31.1839 427.204 31.5 428 31.5ZM431 16.5C431 15.7044 430.684 14.9413 430.121 14.3787C429.559 13.8161 428.796 13.5 428 13.5C427.204 13.5 426.441 13.8161 425.879 14.3787C425.316 14.9413 425 15.7044 425 16.5C425 17.2956 425.316 18.0587 425.879 18.6213C426.441 19.1839 427.204 19.5 428 19.5C428.796 19.5 429.559 19.1839 430.121 18.6213C430.684 18.0587 431 17.2956 431 16.5ZM428 43.5C428.796 43.5 429.559 43.1839 430.121 42.6213C430.684 42.0587 431 41.2957 431 40.5C431 39.7043 430.684 38.9413 430.121 38.3787C429.559 37.8161 428.796 37.5 428 37.5C427.204 37.5 426.441 37.8161 425.879 38.3787C425.316 38.9413 425 39.7043 425 40.5C425 41.2957 425.316 42.0587 425.879 42.6213C426.441 43.1839 427.204 43.5 428 43.5ZM460.565 44.556C460.837 44.272 460.987 43.8924 460.982 43.4989C460.977 43.1055 460.818 42.7298 460.538 42.4528C460.259 42.1758 459.882 42.0196 459.488 42.018C459.095 42.0163 458.717 42.1693 458.435 42.444L447.506 53.484L442.571 48.45C442.434 48.3061 442.27 48.1908 442.087 48.111C441.905 48.0312 441.709 47.9883 441.511 47.9849C441.312 47.9815 441.114 48.0177 440.93 48.0913C440.745 48.1649 440.577 48.2744 440.435 48.4136C440.293 48.5528 440.18 48.7187 440.103 48.9019C440.026 49.0851 439.986 49.2818 439.985 49.4806C439.984 49.6793 440.023 49.8763 440.1 50.0599C440.176 50.2434 440.288 50.4101 440.429 50.55L446.216 56.454C446.383 56.6245 446.582 56.76 446.802 56.8527C447.022 56.9454 447.259 56.9934 447.497 56.994C447.736 56.9945 447.972 56.9476 448.193 56.856C448.413 56.7643 448.613 56.6297 448.781 56.46L460.565 44.556Z" fill="#6E2727"/>
<path d="M760.146 92.2499C760.296 91.8806 760.552 91.5643 760.882 91.3417C761.212 91.119 761.602 91 762 91C762.399 91 762.788 91.119 763.118 91.3417C763.448 91.5643 763.705 91.8806 763.854 92.2499C765.333 92.6566 766.637 93.5374 767.567 94.7572C768.497 95.977 769 97.4682 769 99.0019V103.699L770.832 106.447C770.933 106.597 770.99 106.773 770.999 106.953C771.008 107.134 770.967 107.314 770.882 107.474C770.797 107.633 770.669 107.767 770.514 107.86C770.359 107.953 770.181 108.002 770 108.002H765.465C765.345 108.835 764.928 109.597 764.292 110.148C763.655 110.699 762.842 111.002 762 111.002C761.158 111.002 760.345 110.699 759.708 110.148C759.072 109.597 758.656 108.835 758.535 108.002H754C753.819 108.002 753.641 107.953 753.486 107.86C753.331 107.767 753.204 107.633 753.118 107.474C753.033 107.314 752.992 107.134 753.001 106.953C753.01 106.773 753.068 106.597 753.168 106.447L755 103.699V99.0019C755 95.7779 757.18 93.0619 760.146 92.2499ZM760.586 108.002C760.689 108.295 760.881 108.548 761.134 108.727C761.388 108.906 761.69 109.003 762.001 109.003C762.311 109.003 762.614 108.906 762.867 108.727C763.12 108.548 763.312 108.295 763.415 108.002H760.586ZM762 94.0019C760.674 94.0019 759.402 94.5287 758.465 95.4663C757.527 96.404 757 97.6758 757 99.0019V104.002C757 104.199 756.942 104.393 756.832 104.557L755.869 106.002H768.13L767.167 104.557C767.058 104.392 767 104.199 767 104.002V99.0019C767 97.6758 766.473 96.404 765.536 95.4663C764.598 94.5287 763.326 94.0019 762 94.0019Z" fill="black"/>
<line x1="405.003" y1="59.5" x2="780.003" y2="61.5" stroke="black"/>
<circle cx="737" cy="752" r="30" fill="#6E2727"/>
<path d="M737 742V762M727 752H747" stroke="white" stroke-width="2" stroke-linecap="round" stroke-linejoin="round"/>
<rect x="419" y="237" width="347" height="400" rx="15" fill="#D9D9D9" fill-opacity="0.4"/>
<path d="M429.19 209.29C429.69 210.15 429.94 210.98 429.94 211.78C429.94 211.96 429.92 212.12 429.88 212.26C429.86 212.42 429.83 212.58 429.79 212.74C429.45 212.7 429.09 212.67 428.71 212.65C428.35 212.63 427.97 212.62 427.57 212.62C427.09 212.62 426.6 212.63 426.1 212.65C425.62 212.69 425.08 212.74 424.48 212.8C423.88 212.86 423.21 212.94 422.47 213.04C421.73 213.14 420.87 213.27 419.89 213.43C419.43 213.27 418.97 212.95 418.51 212.47C418.05 212.01 417.62 211.45 417.22 210.79C417.42 210.35 417.67 209.81 417.97 209.17C418.27 208.51 418.62 207.72 419.02 206.8C419.42 205.86 419.86 204.77 420.34 203.53C420.84 202.27 421.37 200.82 421.93 199.18C422.29 198.1 422.6 197.15 422.86 196.33C423.12 195.51 423.35 194.72 423.55 193.96C423.77 193.18 423.98 192.37 424.18 191.53C424.38 190.69 424.6 189.72 424.84 188.62C425.64 188.78 426.33 189.08 426.91 189.52C427.51 189.94 428.08 190.55 428.62 191.35C428.46 191.61 428.25 192.03 427.99 192.61C427.73 193.19 427.42 193.9 427.06 194.74C426.72 195.56 426.34 196.5 425.92 197.56C425.5 198.6 425.06 199.72 424.6 200.92C424.16 202.1 423.73 203.21 423.31 204.25C422.89 205.29 422.51 206.23 422.17 207.07C421.85 207.91 421.59 208.63 421.39 209.23C421.19 209.83 421.09 210.28 421.09 210.58C421.41 210.56 421.7 210.54 421.96 210.52C422.22 210.5 422.49 210.47 422.77 210.43C423.05 210.37 423.35 210.31 423.67 210.25C424.01 210.17 424.41 210.07 424.87 209.95C425.27 209.85 425.64 209.77 425.98 209.71C426.32 209.63 426.65 209.57 426.97 209.53C427.31 209.47 427.65 209.43 427.99 209.41C428.35 209.37 428.75 209.33 429.19 209.29ZM442.293 198.88C442.493 198.88 442.723 198.92 442.983 199C443.263 199.06 443.513 199.15 443.733 199.27C443.953 199.37 444.133 199.48 444.273 199.6C444.433 199.72 444.513 199.83 444.513 199.93C444.113 200.77 443.743 201.62 443.403 202.48C443.063 203.32 442.773 204.13 442.533 204.91C442.293 205.69 442.103 206.42 441.963 207.1C441.843 207.78 441.783 208.37 441.783 208.87C441.783 209.43 441.843 209.9 441.963 210.28C442.083 210.64 442.283 210.9 442.563 211.06C442.323 211.22 442.013 211.35 441.633 211.45C441.253 211.55 440.913 211.6 440.613 211.6C439.533 211.6 438.993 210.86 438.993 209.38C438.993 208.24 439.373 206.68 440.133 204.7C439.733 205.62 439.273 206.49 438.753 207.31C438.233 208.11 437.703 208.82 437.163 209.44C436.623 210.06 436.073 210.57 435.513 210.97C434.973 211.35 434.473 211.58 434.013 211.66C433.273 211.62 432.673 211.27 432.213 210.61C431.753 209.93 431.523 209.07 431.523 208.03C431.523 206.91 431.763 205.73 432.243 204.49C432.723 203.25 433.333 202.1 434.073 201.04C434.833 199.98 435.653 199.1 436.533 198.4C437.413 197.68 438.263 197.3 439.083 197.26C439.283 197.32 439.503 197.44 439.743 197.62C440.003 197.8 440.243 198.01 440.463 198.25C440.703 198.49 440.903 198.74 441.063 199C441.223 199.24 441.313 199.45 441.333 199.63C440.533 199.75 439.703 200.14 438.843 200.8C438.003 201.46 437.233 202.26 436.533 203.2C435.853 204.12 435.293 205.11 434.853 206.17C434.413 207.23 434.193 208.22 434.193 209.14C434.193 209.52 434.333 209.76 434.613 209.86C435.193 209.74 435.863 209.25 436.623 208.39C437.383 207.51 438.303 206.16 439.383 204.34C439.583 203.98 439.803 203.58 440.043 203.14C440.303 202.7 440.563 202.24 440.823 201.76C441.083 201.28 441.333 200.8 441.573 200.32C441.833 199.82 442.073 199.34 442.293 198.88ZM456.385 199.06C456.365 199.44 456.295 199.84 456.175 200.26C456.075 200.66 455.945 201.03 455.785 201.37C455.625 201.69 455.455 201.96 455.275 202.18C455.095 202.4 454.925 202.51 454.765 202.51C454.545 202.49 454.415 202.34 454.375 202.06C454.375 202 454.395 201.91 454.435 201.79C454.495 201.65 454.555 201.5 454.615 201.34C454.675 201.18 454.725 201.02 454.765 200.86C454.825 200.7 454.855 200.56 454.855 200.44C454.855 200.16 454.785 199.93 454.645 199.75C454.525 199.55 454.355 199.45 454.135 199.45C453.335 199.45 452.725 199.95 452.305 200.95C451.885 201.95 451.675 203.42 451.675 205.36C451.675 205.56 451.685 205.68 451.705 205.72C452.125 205.7 452.495 205.69 452.815 205.69C453.155 205.67 453.485 205.66 453.805 205.66C453.825 205.7 453.835 205.78 453.835 205.9C453.835 206.08 453.795 206.21 453.715 206.29C453.255 206.39 452.885 206.48 452.605 206.56C452.345 206.62 452.145 206.68 452.005 206.74C451.865 206.8 451.775 206.87 451.735 206.95C451.715 207.01 451.705 207.1 451.705 207.22C451.705 207.38 451.705 207.54 451.705 207.7C451.725 207.86 451.735 208.06 451.735 208.3C451.735 209.98 451.275 211.33 450.355 212.35C449.455 213.37 448.195 213.96 446.575 214.12C446.295 214.1 446.005 214.02 445.705 213.88C445.405 213.74 445.115 213.56 444.835 213.34C444.575 213.12 444.345 212.87 444.145 212.59C443.945 212.33 443.805 212.06 443.725 211.78C443.725 211.02 443.885 210.3 444.205 209.62C444.525 208.92 444.955 208.31 445.495 207.79C446.055 207.25 446.705 206.82 447.445 206.5C448.205 206.16 449.025 205.96 449.905 205.9C449.905 205.4 449.855 204.91 449.755 204.43C449.655 203.95 449.545 203.49 449.425 203.05C449.325 202.59 449.225 202.15 449.125 201.73C449.025 201.29 448.975 200.86 448.975 200.44C448.975 199.9 449.085 199.37 449.305 198.85C449.525 198.31 449.815 197.82 450.175 197.38C450.535 196.92 450.955 196.53 451.435 196.21C451.915 195.89 452.415 195.67 452.935 195.55C453.155 195.61 453.445 195.79 453.805 196.09C454.185 196.37 454.555 196.69 454.915 197.05C455.275 197.41 455.595 197.78 455.875 198.16C456.155 198.52 456.325 198.82 456.385 199.06ZM446.485 212.74C446.965 212.54 447.415 212.25 447.835 211.87C448.275 211.49 448.655 211.06 448.975 210.58C449.295 210.1 449.545 209.59 449.725 209.05C449.925 208.51 450.025 207.98 450.025 207.46C449.625 207.52 449.185 207.71 448.705 208.03C448.225 208.33 447.775 208.7 447.355 209.14C446.935 209.56 446.585 210 446.305 210.46C446.025 210.92 445.885 211.32 445.885 211.66C445.885 212.1 446.085 212.46 446.485 212.74ZM458.176 199.51C458.076 199.39 457.986 199.14 457.906 198.76C457.826 198.36 457.786 198.02 457.786 197.74C458.306 197.78 458.806 197.82 459.286 197.86C459.766 197.88 460.206 197.9 460.606 197.92C460.906 197.32 461.226 196.73 461.566 196.15C461.926 195.55 462.266 195.01 462.586 194.53C462.926 194.03 463.236 193.61 463.516 193.27C463.816 192.93 464.046 192.71 464.206 192.61C464.406 192.61 464.656 192.65 464.956 192.73C465.276 192.79 465.596 192.88 465.916 193C466.236 193.1 466.526 193.21 466.786 193.33C467.046 193.45 467.226 193.57 467.326 193.69C466.726 194.45 466.206 195.16 465.766 195.82C465.346 196.46 464.886 197.2 464.386 198.04C464.786 198.04 465.186 198.03 465.586 198.01C466.006 197.99 466.426 197.96 466.846 197.92C466.946 198.02 467.026 198.15 467.086 198.31C467.146 198.45 467.176 198.6 467.176 198.76C466.196 199.12 465.006 199.32 463.606 199.36C463.106 200.32 462.656 201.28 462.256 202.24C461.876 203.18 461.546 204.09 461.266 204.97C461.006 205.85 460.796 206.68 460.636 207.46C460.496 208.24 460.426 208.94 460.426 209.56C460.426 210.44 460.756 210.93 461.416 211.03C462.016 210.95 462.586 210.8 463.126 210.58C463.666 210.36 464.146 210.08 464.566 209.74C464.686 209.92 464.756 210.07 464.776 210.19C464.656 210.37 464.446 210.58 464.146 210.82C463.866 211.06 463.556 211.29 463.216 211.51C462.876 211.75 462.546 211.95 462.226 212.11C461.906 212.27 461.666 212.36 461.506 212.38C461.006 212.36 460.506 212.25 460.006 212.05C459.506 211.85 459.046 211.6 458.626 211.3C458.226 211 457.896 210.67 457.636 210.31C457.376 209.93 457.246 209.56 457.246 209.2C457.246 208.72 457.306 208.12 457.426 207.4C457.566 206.66 457.756 205.86 457.996 205C458.236 204.14 458.516 203.24 458.836 202.3C459.156 201.36 459.506 200.43 459.886 199.51H458.176ZM470.083 192.82C469.283 192.82 468.663 192.6 468.223 192.16C467.803 191.7 467.593 191.15 467.593 190.51C467.593 190.35 467.613 190.16 467.653 189.94C467.713 189.72 467.783 189.53 467.863 189.37C468.123 189.49 468.503 189.58 469.003 189.64C469.523 189.68 470.123 189.7 470.803 189.7C471.823 189.7 472.973 189.66 474.253 189.58C475.553 189.48 476.793 189.38 477.973 189.28C479.153 189.18 480.193 189.09 481.093 189.01C481.993 188.91 482.573 188.86 482.833 188.86C483.573 188.86 484.103 189.14 484.423 189.7C484.763 190.24 485.013 190.97 485.173 191.89C484.653 191.85 484.133 191.82 483.613 191.8C483.113 191.76 482.683 191.74 482.323 191.74C481.683 191.74 481.033 191.76 480.373 191.8C479.733 191.84 479.083 191.9 478.423 191.98C478.143 192.56 477.833 193.25 477.493 194.05C477.153 194.83 476.813 195.65 476.473 196.51C476.153 197.37 475.843 198.23 475.543 199.09C475.243 199.93 474.983 200.69 474.763 201.37C474.323 202.69 473.933 203.91 473.593 205.03C473.273 206.15 472.983 207.2 472.723 208.18C472.483 209.14 472.273 210.06 472.093 210.94C471.913 211.82 471.753 212.68 471.613 213.52C470.273 213.32 469.153 212.48 468.253 211C468.413 210.38 468.603 209.71 468.823 208.99C469.063 208.25 469.333 207.42 469.633 206.5C469.953 205.56 470.323 204.5 470.743 203.32C471.163 202.14 471.643 200.8 472.183 199.3C472.383 198.74 472.593 198.16 472.813 197.56C473.033 196.94 473.243 196.33 473.443 195.73C473.663 195.13 473.853 194.55 474.013 193.99C474.193 193.43 474.343 192.92 474.463 192.46C473.623 192.56 472.823 192.65 472.063 192.73C471.323 192.79 470.663 192.82 470.083 192.82ZM488.612 198.88C488.812 198.88 489.042 198.92 489.302 199C489.582 199.06 489.832 199.15 490.052 199.27C490.272 199.37 490.452 199.48 490.592 199.6C490.752 199.72 490.832 199.83 490.832 199.93C490.432 200.77 490.062 201.62 489.722 202.48C489.382 203.32 489.092 204.13 488.852 204.91C488.612 205.69 488.422 206.42 488.282 207.1C488.162 207.78 488.102 208.37 488.102 208.87C488.102 209.43 488.162 209.9 488.282 210.28C488.402 210.64 488.602 210.9 488.882 211.06C488.642 211.22 488.332 211.35 487.952 211.45C487.572 211.55 487.232 211.6 486.932 211.6C485.852 211.6 485.312 210.86 485.312 209.38C485.312 208.24 485.692 206.68 486.452 204.7C486.052 205.62 485.592 206.49 485.072 207.31C484.552 208.11 484.022 208.82 483.482 209.44C482.942 210.06 482.392 210.57 481.832 210.97C481.292 211.35 480.792 211.58 480.332 211.66C479.592 211.62 478.992 211.27 478.532 210.61C478.072 209.93 477.842 209.07 477.842 208.03C477.842 206.91 478.082 205.73 478.562 204.49C479.042 203.25 479.652 202.1 480.392 201.04C481.152 199.98 481.972 199.1 482.852 198.4C483.732 197.68 484.582 197.3 485.402 197.26C485.602 197.32 485.822 197.44 486.062 197.62C486.322 197.8 486.562 198.01 486.782 198.25C487.022 198.49 487.222 198.74 487.382 199C487.542 199.24 487.632 199.45 487.652 199.63C486.852 199.75 486.022 200.14 485.162 200.8C484.322 201.46 483.552 202.26 482.852 203.2C482.172 204.12 481.612 205.11 481.172 206.17C480.732 207.23 480.512 208.22 480.512 209.14C480.512 209.52 480.652 209.76 480.932 209.86C481.512 209.74 482.182 209.25 482.942 208.39C483.702 207.51 484.622 206.16 485.702 204.34C485.902 203.98 486.122 203.58 486.362 203.14C486.622 202.7 486.882 202.24 487.142 201.76C487.402 201.28 487.652 200.8 487.892 200.32C488.152 199.82 488.392 199.34 488.612 198.88ZM502.703 199.06C502.683 199.44 502.613 199.84 502.493 200.26C502.393 200.66 502.263 201.03 502.103 201.37C501.943 201.69 501.773 201.96 501.593 202.18C501.413 202.4 501.243 202.51 501.083 202.51C500.863 202.49 500.733 202.34 500.693 202.06C500.693 202 500.713 201.91 500.753 201.79C500.813 201.65 500.873 201.5 500.933 201.34C500.993 201.18 501.043 201.02 501.083 200.86C501.143 200.7 501.173 200.56 501.173 200.44C501.173 200.16 501.103 199.93 500.963 199.75C500.843 199.55 500.673 199.45 500.453 199.45C499.653 199.45 499.043 199.95 498.623 200.95C498.203 201.95 497.993 203.42 497.993 205.36C497.993 205.56 498.003 205.68 498.023 205.72C498.443 205.7 498.813 205.69 499.133 205.69C499.473 205.67 499.803 205.66 500.123 205.66C500.143 205.7 500.153 205.78 500.153 205.9C500.153 206.08 500.113 206.21 500.033 206.29C499.573 206.39 499.203 206.48 498.923 206.56C498.663 206.62 498.463 206.68 498.323 206.74C498.183 206.8 498.093 206.87 498.053 206.95C498.033 207.01 498.023 207.1 498.023 207.22C498.023 207.38 498.023 207.54 498.023 207.7C498.043 207.86 498.053 208.06 498.053 208.3C498.053 209.98 497.593 211.33 496.673 212.35C495.773 213.37 494.513 213.96 492.893 214.12C492.613 214.1 492.323 214.02 492.023 213.88C491.723 213.74 491.433 213.56 491.153 213.34C490.893 213.12 490.663 212.87 490.463 212.59C490.263 212.33 490.123 212.06 490.043 211.78C490.043 211.02 490.203 210.3 490.523 209.62C490.843 208.92 491.273 208.31 491.813 207.79C492.373 207.25 493.023 206.82 493.763 206.5C494.523 206.16 495.343 205.96 496.223 205.9C496.223 205.4 496.173 204.91 496.073 204.43C495.973 203.95 495.863 203.49 495.743 203.05C495.643 202.59 495.543 202.15 495.443 201.73C495.343 201.29 495.293 200.86 495.293 200.44C495.293 199.9 495.403 199.37 495.623 198.85C495.843 198.31 496.133 197.82 496.493 197.38C496.853 196.92 497.273 196.53 497.753 196.21C498.233 195.89 498.733 195.67 499.253 195.55C499.473 195.61 499.763 195.79 500.123 196.09C500.503 196.37 500.873 196.69 501.233 197.05C501.593 197.41 501.913 197.78 502.193 198.16C502.473 198.52 502.643 198.82 502.703 199.06ZM492.803 212.74C493.283 212.54 493.733 212.25 494.153 211.87C494.593 211.49 494.973 211.06 495.293 210.58C495.613 210.1 495.863 209.59 496.043 209.05C496.243 208.51 496.343 207.98 496.343 207.46C495.943 207.52 495.503 207.71 495.023 208.03C494.543 208.33 494.093 208.7 493.673 209.14C493.253 209.56 492.903 210 492.623 210.46C492.343 210.92 492.203 211.32 492.203 211.66C492.203 212.1 492.403 212.46 492.803 212.74ZM502.784 208.18C502.784 207.46 502.964 206.46 503.324 205.18C503.704 203.9 504.194 202.5 504.794 200.98C505.394 199.46 506.074 197.89 506.834 196.27C507.594 194.65 508.354 193.14 509.114 191.74C509.894 190.34 510.634 189.13 511.334 188.11C512.054 187.09 512.664 186.4 513.164 186.04C513.444 186.06 513.744 186.18 514.064 186.4C514.404 186.62 514.714 186.89 514.994 187.21C515.274 187.51 515.504 187.83 515.684 188.17C515.884 188.51 515.984 188.82 515.984 189.1C515.084 189.82 514.164 190.75 513.224 191.89C512.304 193.01 511.424 194.25 510.584 195.61C509.744 196.95 508.964 198.38 508.244 199.9C507.544 201.4 506.954 202.88 506.474 204.34C507.114 203.24 507.784 202.24 508.484 201.34C509.184 200.44 509.884 199.67 510.584 199.03C511.284 198.39 511.964 197.9 512.624 197.56C513.304 197.2 513.944 197.01 514.544 196.99C515.424 197.63 515.864 198.48 515.864 199.54C515.864 200.18 515.734 200.83 515.474 201.49C515.214 202.13 514.864 202.73 514.424 203.29C514.004 203.83 513.514 204.3 512.954 204.7C512.414 205.08 511.844 205.33 511.244 205.45C511.444 206.15 511.694 206.86 511.994 207.58C512.314 208.3 512.684 209 513.104 209.68C513.544 210.36 514.034 210.99 514.574 211.57C515.134 212.15 515.764 212.64 516.464 213.04C516.364 213.24 516.214 213.44 516.014 213.64C515.814 213.84 515.574 214.01 515.294 214.15C515.014 214.31 514.704 214.43 514.364 214.51C514.044 214.61 513.724 214.66 513.404 214.66C512.864 214.66 512.354 214.39 511.874 213.85C511.414 213.31 510.994 212.53 510.614 211.51C510.314 210.69 510.024 209.71 509.744 208.57C509.464 207.43 509.214 206.24 508.994 205C509.274 204.82 509.624 204.56 510.044 204.22C510.464 203.86 510.904 203.45 511.364 202.99C513.124 201.29 514.004 199.82 514.004 198.58C514.004 198.42 513.894 198.34 513.674 198.34C513.274 198.36 512.804 198.55 512.264 198.91C511.724 199.27 511.144 199.77 510.524 200.41C509.924 201.05 509.304 201.8 508.664 202.66C508.044 203.52 507.444 204.45 506.864 205.45C506.624 205.85 506.404 206.31 506.204 206.83C506.004 207.35 505.824 207.89 505.664 208.45C505.524 208.99 505.414 209.53 505.334 210.07C505.254 210.61 505.214 211.11 505.214 211.57C505.214 211.85 505.244 212.08 505.304 212.26C504.684 212.2 504.304 212.04 504.164 211.78C504.004 211.54 503.864 211.34 503.744 211.18C503.644 211.04 503.534 210.92 503.414 210.82C503.234 210.68 503.084 210.38 502.964 209.92C502.844 209.46 502.784 208.88 502.784 208.18ZM528.543 199.06C528.523 199.44 528.453 199.84 528.333 200.26C528.233 200.66 528.103 201.03 527.943 201.37C527.783 201.69 527.613 201.96 527.433 202.18C527.253 202.4 527.083 202.51 526.923 202.51C526.703 202.49 526.573 202.34 526.533 202.06C526.533 202 526.553 201.91 526.593 201.79C526.653 201.65 526.713 201.5 526.773 201.34C526.833 201.18 526.883 201.02 526.923 200.86C526.983 200.7 527.013 200.56 527.013 200.44C527.013 200.16 526.943 199.93 526.803 199.75C526.683 199.55 526.513 199.45 526.293 199.45C525.493 199.45 524.883 199.95 524.463 200.95C524.043 201.95 523.833 203.42 523.833 205.36C523.833 205.56 523.843 205.68 523.863 205.72C524.283 205.7 524.653 205.69 524.973 205.69C525.313 205.67 525.643 205.66 525.963 205.66C525.983 205.7 525.993 205.78 525.993 205.9C525.993 206.08 525.953 206.21 525.873 206.29C525.413 206.39 525.043 206.48 524.763 206.56C524.503 206.62 524.303 206.68 524.163 206.74C524.023 206.8 523.933 206.87 523.893 206.95C523.873 207.01 523.863 207.1 523.863 207.22C523.863 207.38 523.863 207.54 523.863 207.7C523.883 207.86 523.893 208.06 523.893 208.3C523.893 209.98 523.433 211.33 522.513 212.35C521.613 213.37 520.353 213.96 518.733 214.12C518.453 214.1 518.163 214.02 517.863 213.88C517.563 213.74 517.273 213.56 516.993 213.34C516.733 213.12 516.503 212.87 516.303 212.59C516.103 212.33 515.963 212.06 515.883 211.78C515.883 211.02 516.043 210.3 516.363 209.62C516.683 208.92 517.113 208.31 517.653 207.79C518.213 207.25 518.863 206.82 519.603 206.5C520.363 206.16 521.183 205.96 522.063 205.9C522.063 205.4 522.013 204.91 521.913 204.43C521.813 203.95 521.703 203.49 521.583 203.05C521.483 202.59 521.383 202.15 521.283 201.73C521.183 201.29 521.133 200.86 521.133 200.44C521.133 199.9 521.243 199.37 521.463 198.85C521.683 198.31 521.973 197.82 522.333 197.38C522.693 196.92 523.113 196.53 523.593 196.21C524.073 195.89 524.573 195.67 525.093 195.55C525.313 195.61 525.603 195.79 525.963 196.09C526.343 196.37 526.713 196.69 527.073 197.05C527.433 197.41 527.753 197.78 528.033 198.16C528.313 198.52 528.483 198.82 528.543 199.06ZM518.643 212.74C519.123 212.54 519.573 212.25 519.993 211.87C520.433 211.49 520.813 211.06 521.133 210.58C521.453 210.1 521.703 209.59 521.883 209.05C522.083 208.51 522.183 207.98 522.183 207.46C521.783 207.52 521.343 207.71 520.863 208.03C520.383 208.33 519.933 208.7 519.513 209.14C519.093 209.56 518.743 210 518.463 210.46C518.183 210.92 518.043 211.32 518.043 211.66C518.043 212.1 518.243 212.46 518.643 212.74Z" fill="black"/>
</g>
<rect width="375" height="812" transform="translate(807)" fill="white"/>
<rect x="847" y="105" width="304" height="60" fill="#D9D9D9" fill-opacity="0.2"/>
<path d="M849.96 66.76C848.893 66.76 848.067 66.4667 847.48 65.88C846.92 65.2667 846.64 64.5333 846.64 63.68C846.64 63.4667 846.667 63.2133 846.72 62.92C846.8 62.6267 846.893 62.3733 847 62.16C847.347 62.32 847.853 62.44 848.52 62.52C849.213 62.5733 850.013 62.6 850.92 62.6C852.28 62.6 853.813 62.5467 855.52 62.44C857.253 62.3067 858.907 62.1733 860.48 62.04C862.053 61.9067 863.44 61.7867 864.64 61.68C865.84 61.5467 866.613 61.48 866.96 61.48C867.947 61.48 868.653 61.8533 869.08 62.6C869.533 63.32 869.867 64.2933 870.08 65.52C869.387 65.4667 868.693 65.4267 868 65.4C867.333 65.3467 866.76 65.32 866.28 65.32C865.427 65.32 864.56 65.3467 863.68 65.4C862.827 65.4533 861.96 65.5333 861.08 65.64C860.707 66.4133 860.293 67.3333 859.84 68.4C859.387 69.44 858.933 70.5333 858.48 71.68C858.053 72.8267 857.64 73.9733 857.24 75.12C856.84 76.24 856.493 77.2533 856.2 78.16C855.613 79.92 855.093 81.5467 854.64 83.04C854.213 84.5333 853.827 85.9333 853.48 87.24C853.16 88.52 852.88 89.7467 852.64 90.92C852.4 92.0933 852.187 93.24 852 94.36C850.213 94.0933 848.72 92.9733 847.52 91C847.733 90.1733 847.987 89.28 848.28 88.32C848.6 87.3333 848.96 86.2267 849.36 85C849.787 83.7467 850.28 82.3333 850.84 80.76C851.4 79.1867 852.04 77.4 852.76 75.4C853.027 74.6533 853.307 73.88 853.6 73.08C853.893 72.2533 854.173 71.44 854.44 70.64C854.733 69.84 854.987 69.0667 855.2 68.32C855.44 67.5733 855.64 66.8933 855.8 66.28C854.68 66.4133 853.613 66.5333 852.6 66.64C851.613 66.72 850.733 66.76 849.96 66.76ZM863.795 88.32C863.795 88.08 863.808 87.7867 863.835 87.44C863.888 87.0667 863.968 86.5867 864.075 86C864.182 85.3867 864.315 84.6533 864.475 83.8C864.662 82.9467 864.888 81.92 865.155 80.72C865.208 80.4533 865.328 80.0267 865.515 79.44C865.702 78.8533 865.942 78.24 866.235 77.6C866.555 76.9333 866.928 76.2933 867.355 75.68C867.808 75.0667 868.342 74.6133 868.955 74.32C869.408 74.4267 870.008 74.7067 870.755 75.16C871.502 75.5867 872.142 76.1867 872.675 76.96C872.062 77.6533 871.542 78.3467 871.115 79.04C870.715 79.7333 870.342 80.4533 869.995 81.2C869.675 81.9467 869.368 82.72 869.075 83.52C868.808 84.32 868.502 85.16 868.155 86.04C867.862 86.7867 867.595 87.56 867.355 88.36C867.115 89.1333 866.982 89.8133 866.955 90.4C866.955 90.88 866.942 91.2133 866.915 91.4C866.915 91.6133 866.848 91.72 866.715 91.72C866.608 91.72 866.395 91.6533 866.075 91.52C865.755 91.3867 865.422 91.1867 865.075 90.92C864.755 90.6267 864.462 90.2667 864.195 89.84C863.928 89.4133 863.795 88.9067 863.795 88.32ZM871.435 70.96C871.435 70.8 871.475 70.56 871.555 70.24C871.422 70.1067 871.302 69.9067 871.195 69.64C871.115 69.3733 871.075 69.1333 871.075 68.92C871.075 68.68 871.102 68.36 871.155 67.96C871.235 67.5333 871.328 67.08 871.435 66.6C871.542 66.12 871.675 65.6267 871.835 65.12C871.995 64.5867 872.155 64.1067 872.315 63.68C872.635 63.68 873.022 63.7733 873.475 63.96C873.955 64.12 874.435 64.3467 874.915 64.64C875.395 64.9067 875.835 65.2133 876.235 65.56C876.635 65.88 876.942 66.1867 877.155 66.48C876.862 66.7733 876.475 67.1867 875.995 67.72C875.515 68.2267 875.048 68.7733 874.595 69.36C874.142 69.92 873.728 70.4533 873.355 70.96C872.982 71.4667 872.742 71.8267 872.635 72.04C872.315 71.9867 872.035 71.8533 871.795 71.64C871.555 71.4 871.435 71.1733 871.435 70.96ZM875.295 75.68C875.161 75.52 875.041 75.1867 874.935 74.68C874.828 74.1467 874.775 73.6933 874.775 73.32C875.468 73.3733 876.135 73.4267 876.775 73.48C877.415 73.5067 878.001 73.5333 878.535 73.56C878.935 72.76 879.361 71.9733 879.815 71.2C880.295 70.4 880.748 69.68 881.175 69.04C881.628 68.3733 882.041 67.8133 882.415 67.36C882.815 66.9067 883.121 66.6133 883.335 66.48C883.601 66.48 883.935 66.5333 884.335 66.64C884.761 66.72 885.188 66.84 885.615 67C886.041 67.1333 886.428 67.28 886.775 67.44C887.121 67.6 887.361 67.76 887.495 67.92C886.695 68.9333 886.001 69.88 885.415 70.76C884.855 71.6133 884.241 72.6 883.575 73.72C884.108 73.72 884.641 73.7067 885.175 73.68C885.735 73.6533 886.295 73.6133 886.855 73.56C886.988 73.6933 887.095 73.8667 887.175 74.08C887.255 74.2667 887.295 74.4667 887.295 74.68C885.988 75.16 884.401 75.4267 882.535 75.48C881.868 76.76 881.268 78.04 880.735 79.32C880.228 80.5733 879.788 81.7867 879.415 82.96C879.068 84.1333 878.788 85.24 878.575 86.28C878.388 87.32 878.295 88.2533 878.295 89.08C878.295 90.2533 878.735 90.9067 879.615 91.04C880.415 90.9333 881.175 90.7333 881.895 90.44C882.615 90.1467 883.255 89.7733 883.815 89.32C883.975 89.56 884.068 89.76 884.095 89.92C883.935 90.16 883.655 90.44 883.255 90.76C882.881 91.08 882.468 91.3867 882.015 91.68C881.561 92 881.121 92.2667 880.695 92.48C880.268 92.6933 879.948 92.8133 879.735 92.84C879.068 92.8133 878.401 92.6667 877.735 92.4C877.068 92.1333 876.455 91.8 875.895 91.4C875.361 91 874.921 90.56 874.575 90.08C874.228 89.5733 874.055 89.08 874.055 88.6C874.055 87.96 874.135 87.16 874.295 86.2C874.481 85.2133 874.735 84.1467 875.055 83C875.375 81.8533 875.748 80.6533 876.175 79.4C876.601 78.1467 877.068 76.9067 877.575 75.68H875.295ZM886.957 88.44C886.957 87.2667 887.237 85.6267 887.797 83.52C888.357 81.3867 889.144 78.9067 890.157 76.08C891.811 71.5733 893.357 67.8267 894.797 64.84C896.264 61.8267 897.691 59.48 899.077 57.8C899.397 57.8533 899.784 57.9867 900.237 58.2C900.717 58.4133 901.184 58.6533 901.637 58.92C902.091 59.16 902.491 59.4133 902.837 59.68C903.211 59.9467 903.451 60.16 903.557 60.32C901.477 62.7733 899.651 65.4133 898.077 68.24C896.504 71.0667 895.064 74.3067 893.757 77.96C892.637 81.1067 891.784 83.9467 891.197 86.48C890.611 88.9867 890.317 91.08 890.317 92.76C890.317 93.2133 890.317 93.4933 890.317 93.6C890.317 93.7067 890.331 93.8133 890.357 93.92C889.984 93.8667 889.664 93.7733 889.397 93.64C889.131 93.5067 888.957 93.3467 888.877 93.16C888.824 93.0267 888.677 92.8267 888.437 92.56C888.197 92.32 887.984 92.1333 887.797 92C887.557 91.84 887.357 91.4267 887.197 90.76C887.037 90.0667 886.957 89.2933 886.957 88.44ZM910.614 74.44C910.507 76.0933 910.214 77.52 909.734 78.72C909.254 79.8933 908.561 80.9333 907.654 81.84C906.774 82.72 905.694 83.52 904.414 84.24C903.134 84.96 901.641 85.6533 899.934 86.32C899.934 86.48 899.921 86.6533 899.894 86.84C899.894 87 899.894 87.1733 899.894 87.36C899.894 87.7067 899.921 88.0667 899.974 88.44C900.027 88.8133 900.121 89.16 900.254 89.48C900.387 89.8 900.574 90.0667 900.814 90.28C901.054 90.4667 901.361 90.56 901.734 90.56C902.454 90.56 903.161 90.4 903.854 90.08C904.547 89.76 905.201 89.3733 905.814 88.92C906.454 88.44 907.041 87.9333 907.574 87.4C908.134 86.84 908.627 86.3333 909.054 85.88C909.321 86.12 909.547 86.3467 909.734 86.56C908.534 88.16 907.214 89.4933 905.774 90.56C904.361 91.6 903.014 92.2667 901.734 92.56C899.894 92.3467 898.454 91.68 897.414 90.56C896.401 89.4133 895.894 88.04 895.894 86.44C895.894 85.3467 896.041 84.24 896.334 83.12C896.654 81.9733 897.081 80.88 897.614 79.84C898.174 78.7733 898.814 77.7733 899.534 76.84C900.281 75.9067 901.067 75.0933 901.894 74.4C902.747 73.7067 903.614 73.16 904.494 72.76C905.401 72.36 906.294 72.16 907.174 72.16C908.401 72.32 909.547 73.08 910.614 74.44ZM907.854 75.76C907.134 75.8667 906.387 76.16 905.614 76.64C904.841 77.12 904.107 77.76 903.414 78.56C902.747 79.36 902.134 80.2933 901.574 81.36C901.014 82.4267 900.574 83.5733 900.254 84.8C902.387 83.7333 904.161 82.4267 905.574 80.88C906.987 79.3067 907.747 77.6 907.854 75.76Z" fill="black"/>
<rect x="847" y="263" width="304" height="60" fill="#D9D9D9" fill-opacity="0.2"/>
<path d="M1117 283L1124.5 298L1132 283H1117Z" fill="black" fill-opacity="0.54"/>
<path d="M843.84 243.04C842.56 242.667 841.667 242.293 841.16 241.92C840.68 241.547 840.44 241.08 840.44 240.52C840.44 240.093 840.56 239.493 840.8 238.72C841.04 237.947 841.387 237.04 841.84 236C842.32 234.933 842.88 233.76 843.52 232.48C844.187 231.2 844.933 229.827 845.76 228.36C845.067 228.333 844.44 228.32 843.88 228.32C843.347 228.293 842.907 228.28 842.56 228.28C842.72 227.88 843.173 227.533 843.92 227.24C844.667 226.947 845.653 226.693 846.88 226.48C847.92 224.747 849.027 223.093 850.2 221.52C851.4 219.947 852.6 218.507 853.8 217.2C855 215.867 856.2 214.707 857.4 213.72C858.6 212.707 859.747 211.907 860.84 211.32C860.867 211.133 860.88 210.973 860.88 210.84C860.907 210.707 860.92 210.613 860.92 210.56C861.293 210.56 861.787 210.653 862.4 210.84C863.04 211.027 863.653 211.253 864.24 211.52C864.853 211.787 865.387 212.067 865.84 212.36C866.32 212.627 866.587 212.853 866.64 213.04C865.76 214.587 864.893 216.907 864.04 220C863.187 223.067 862.48 226.747 861.92 231.04C861.787 232.107 861.667 233.32 861.56 234.68C861.48 236.04 861.44 237.56 861.44 239.24C861.44 239.827 861.44 240.427 861.44 241.04C861.44 241.653 861.467 242.293 861.52 242.96C861.467 242.987 861.413 243 861.36 243C861.307 243 861.2 243 861.04 243C860.667 243 860.227 242.933 859.72 242.8C859.24 242.693 858.76 242.547 858.28 242.36C857.827 242.2 857.427 242.013 857.08 241.8C856.76 241.587 856.56 241.4 856.48 241.24C856.453 240.893 856.44 240.547 856.44 240.2C856.44 239.88 856.44 239.533 856.44 239.16C856.44 237.507 856.493 235.827 856.6 234.12C856.733 232.413 856.947 230.653 857.24 228.84C856.867 228.813 856.373 228.787 855.76 228.76C855.147 228.707 854.453 228.667 853.68 228.64C852.933 228.613 852.12 228.587 851.24 228.56C850.387 228.507 849.547 228.467 848.72 228.44C848.08 229.64 847.48 230.84 846.92 232.04C846.36 233.213 845.88 234.4 845.48 235.6C845.027 236.88 844.653 238.16 844.36 239.44C844.093 240.72 843.92 241.92 843.84 243.04ZM859.28 219C859.387 218.627 859.507 218.12 859.64 217.48C859.8 216.813 859.947 216.12 860.08 215.4C859.413 215.64 858.667 216.08 857.84 216.72C857.04 217.36 856.2 218.16 855.32 219.12C854.467 220.053 853.587 221.12 852.68 222.32C851.8 223.493 850.947 224.747 850.12 226.08C852.36 225.893 854.907 225.773 857.76 225.72C857.973 224.6 858.2 223.493 858.44 222.4C858.707 221.28 858.987 220.147 859.28 219ZM889.492 227.72C889.066 227.747 888.546 228.027 887.932 228.56C887.319 229.067 886.652 229.733 885.932 230.56C885.239 231.36 884.506 232.253 883.732 233.24C882.986 234.227 882.252 235.213 881.532 236.2C880.839 237.16 880.186 238.067 879.572 238.92C878.959 239.773 878.439 240.453 878.012 240.96C877.426 240.72 876.919 240.373 876.492 239.92C876.066 239.44 875.759 238.853 875.572 238.16C875.706 237.333 875.892 236.48 876.132 235.6C876.372 234.693 876.679 233.76 877.052 232.8C877.452 231.84 877.932 230.84 878.492 229.8C879.079 228.733 879.786 227.613 880.612 226.44C880.212 226.467 879.666 226.76 878.972 227.32C878.279 227.853 877.532 228.56 876.732 229.44C875.932 230.293 875.106 231.267 874.252 232.36C873.399 233.427 872.599 234.48 871.852 235.52C870.866 236.907 870.039 238.12 869.372 239.16C868.732 240.2 868.266 240.813 867.972 241C867.279 240.493 866.799 239.947 866.532 239.36C866.266 238.773 866.066 238.12 865.932 237.4C865.959 236.76 866.052 235.96 866.212 235C866.399 234.04 866.652 233.053 866.972 232.04C867.586 230.093 868.372 228.16 869.332 226.24C870.319 224.32 871.266 222.56 872.172 220.96C872.919 221.12 873.586 221.373 874.172 221.72C874.786 222.067 875.426 222.573 876.092 223.24C875.826 224.067 875.412 224.947 874.852 225.88C874.292 226.787 873.706 227.747 873.092 228.76C872.479 229.773 871.919 230.813 871.412 231.88C870.906 232.947 870.572 234.027 870.412 235.12C871.159 234.053 872.039 232.827 873.052 231.44C874.092 230.053 875.146 228.747 876.212 227.52C877.306 226.293 878.386 225.253 879.452 224.4C880.519 223.547 881.479 223.12 882.332 223.12C882.652 223.12 882.999 223.173 883.372 223.28C883.746 223.387 884.092 223.52 884.412 223.68C884.732 223.84 884.999 224 885.212 224.16C885.426 224.293 885.546 224.4 885.572 224.48C885.439 225.013 885.119 225.747 884.612 226.68C884.132 227.587 883.612 228.547 883.052 229.56C882.492 230.573 881.972 231.56 881.492 232.52C881.012 233.453 880.732 234.2 880.652 234.76C881.959 232.973 883.186 231.36 884.332 229.92C885.479 228.453 886.559 227.2 887.572 226.16C888.586 225.12 889.519 224.32 890.372 223.76C891.252 223.2 892.079 222.92 892.852 222.92C893.386 222.92 893.879 223.067 894.332 223.36C894.812 223.627 895.146 224.027 895.332 224.56C895.092 225.36 894.692 226.32 894.132 227.44C893.599 228.56 893.052 229.747 892.492 231C891.932 232.227 891.426 233.44 890.972 234.64C890.546 235.84 890.332 236.92 890.332 237.88C890.332 238.44 890.412 238.813 890.572 239C890.732 239.16 890.959 239.24 891.252 239.24C891.572 239.24 891.866 239.187 892.132 239.08C892.426 238.947 892.639 238.88 892.772 238.88C892.932 238.987 893.026 239.12 893.052 239.28C893.079 239.44 893.092 239.587 893.092 239.72C892.559 240.147 892.012 240.493 891.452 240.76C890.892 241.053 890.266 241.2 889.572 241.2C888.932 241.2 888.399 241.093 887.972 240.88C887.572 240.667 887.239 240.373 886.972 240C886.706 239.627 886.519 239.2 886.412 238.72C886.306 238.24 886.252 237.72 886.252 237.16C886.252 236.253 886.372 235.36 886.612 234.48C886.852 233.573 887.132 232.72 887.452 231.92C887.799 231.093 888.159 230.333 888.532 229.64C888.906 228.92 889.226 228.28 889.492 227.72ZM901.678 241.4C900.158 241.24 898.945 240.573 898.038 239.4C897.131 238.227 896.678 236.733 896.678 234.92C896.678 233.853 896.838 232.747 897.158 231.6C897.478 230.453 897.931 229.347 898.518 228.28C899.105 227.187 899.798 226.16 900.598 225.2C901.398 224.24 902.265 223.413 903.198 222.72C904.665 221.627 906.038 221.08 907.318 221.08C908.171 221.533 909.011 222.48 909.838 223.92C909.971 223.92 910.091 223.92 910.198 223.92C910.305 223.893 910.425 223.88 910.558 223.88C911.971 223.88 912.678 225.133 912.678 227.64C912.678 229.32 912.398 230.92 911.838 232.44C911.305 233.933 910.545 235.293 909.558 236.52C908.598 237.747 907.438 238.787 906.078 239.64C904.745 240.467 903.278 241.053 901.678 241.4ZM903.718 228.8C903.265 229.413 902.838 230.08 902.438 230.8C902.038 231.52 901.691 232.253 901.398 233C901.105 233.72 900.878 234.427 900.718 235.12C900.558 235.787 900.478 236.387 900.478 236.92C900.478 237.56 900.585 238.173 900.798 238.76C901.011 239.347 901.251 239.68 901.518 239.76C902.718 239.493 903.811 239 904.798 238.28C905.811 237.533 906.678 236.613 907.398 235.52C908.145 234.427 908.718 233.187 909.118 231.8C909.545 230.413 909.758 228.933 909.758 227.36C909.758 226.667 909.718 226.12 909.638 225.72C909.558 225.32 909.425 224.973 909.238 224.68C908.065 225.027 907.011 225.587 906.078 226.36C905.171 227.133 904.385 227.947 903.718 228.8ZM925.494 239.12C924.988 238.693 924.641 238.16 924.454 237.52C924.294 236.88 924.214 236.333 924.214 235.88C924.214 235.32 924.281 234.84 924.414 234.44C924.308 234.44 924.068 234.653 923.694 235.08C923.321 235.507 922.908 236.013 922.454 236.6C922.028 237.187 921.601 237.76 921.174 238.32C920.748 238.88 920.428 239.293 920.214 239.56C919.868 239.933 919.534 240.227 919.214 240.44C918.921 240.653 918.681 240.773 918.494 240.8C918.068 240.773 917.614 240.68 917.134 240.52C916.681 240.387 916.241 240.187 915.814 239.92C915.414 239.653 915.054 239.333 914.734 238.96C914.441 238.587 914.241 238.16 914.134 237.68C914.134 236.933 914.148 236.32 914.174 235.84C914.228 235.36 914.321 234.84 914.454 234.28C914.694 233.267 915.041 232.12 915.494 230.84C915.974 229.56 916.521 228.307 917.134 227.08C917.748 225.827 918.428 224.667 919.174 223.6C919.948 222.507 920.761 221.653 921.614 221.04C921.854 221.04 922.134 221.067 922.454 221.12C922.774 221.147 923.094 221.213 923.414 221.32C923.761 221.427 924.081 221.56 924.374 221.72C924.694 221.853 924.961 222.04 925.174 222.28C924.934 222.547 924.321 223.44 923.334 224.96C922.374 226.48 921.294 228.667 920.094 231.52C919.961 231.813 919.801 232.24 919.614 232.8C919.428 233.36 919.241 233.947 919.054 234.56C918.868 235.173 918.708 235.773 918.574 236.36C918.468 236.947 918.414 237.413 918.414 237.76C918.414 237.973 918.441 238.133 918.494 238.24C918.574 238.347 918.641 238.427 918.694 238.48C919.094 238.32 919.601 237.88 920.214 237.16C920.828 236.44 921.681 235.333 922.774 233.84C923.041 233.467 923.348 233.04 923.694 232.56C924.068 232.08 924.441 231.573 924.814 231.04C925.188 230.48 925.534 229.907 925.854 229.32C926.201 228.733 926.481 228.147 926.694 227.56C926.801 227.24 926.934 226.867 927.094 226.44C927.281 225.987 927.494 225.52 927.734 225.04C928.001 224.56 928.294 224.08 928.614 223.6C928.961 223.093 929.361 222.627 929.814 222.2C930.161 222.2 930.534 222.24 930.934 222.32C931.334 222.4 931.708 222.507 932.054 222.64C932.428 222.747 932.748 222.88 933.014 223.04C933.281 223.173 933.481 223.32 933.614 223.48C933.134 224.653 932.601 225.813 932.014 226.96C931.428 228.107 930.881 229.24 930.374 230.36C929.868 231.453 929.441 232.547 929.094 233.64C928.748 234.733 928.574 235.8 928.574 236.84C928.574 237.4 928.614 237.893 928.694 238.32C928.801 238.72 928.908 239.067 929.014 239.36C929.121 239.627 929.214 239.853 929.294 240.04C929.401 240.227 929.454 240.387 929.454 240.52C929.454 240.547 929.428 240.587 929.374 240.64C929.348 240.667 929.321 240.68 929.294 240.68C929.108 240.68 928.868 240.64 928.574 240.56C928.281 240.48 927.948 240.36 927.574 240.2C927.228 240.067 926.868 239.907 926.494 239.72C926.148 239.533 925.814 239.333 925.494 239.12ZM940.86 220.6C941.553 220.813 942.207 221.293 942.82 222.04C943.433 222.76 943.887 223.56 944.18 224.44C943.887 225.16 943.433 226.027 942.82 227.04C942.207 228.053 941.593 229.093 940.98 230.16C940.367 231.2 939.807 232.2 939.3 233.16C938.82 234.093 938.54 234.867 938.46 235.48C938.887 235.027 939.353 234.507 939.86 233.92C940.393 233.307 940.9 232.707 941.38 232.12C941.887 231.507 942.353 230.96 942.78 230.48C943.207 229.973 943.54 229.6 943.78 229.36C944.287 228.827 944.887 228.213 945.58 227.52C946.273 226.8 946.993 226.133 947.74 225.52C948.513 224.88 949.287 224.347 950.06 223.92C950.833 223.467 951.54 223.24 952.18 223.24C952.873 223.24 953.447 223.48 953.9 223.96C954.38 224.413 954.753 224.893 955.02 225.4C955.02 225.453 954.913 225.533 954.7 225.64C954.513 225.72 954.233 225.973 953.86 226.4C953.487 226.88 953.06 227.547 952.58 228.4C952.127 229.227 951.673 230.133 951.22 231.12C950.793 232.08 950.433 233.067 950.14 234.08C949.847 235.093 949.7 236.013 949.7 236.84C949.7 237.507 949.78 237.933 949.94 238.12C950.127 238.307 950.38 238.4 950.7 238.4C950.993 238.4 951.3 238.333 951.62 238.2C951.94 238.067 952.193 238 952.38 238C952.487 238.053 952.567 238.173 952.62 238.36C952.7 238.52 952.74 238.667 952.74 238.8C952.527 238.987 952.273 239.173 951.98 239.36C951.687 239.547 951.38 239.72 951.06 239.88C950.74 240.04 950.42 240.173 950.1 240.28C949.807 240.387 949.54 240.44 949.3 240.44C948.527 240.44 947.887 240.32 947.38 240.08C946.9 239.867 946.513 239.573 946.22 239.2C945.953 238.827 945.767 238.387 945.66 237.88C945.553 237.347 945.5 236.787 945.5 236.2C945.5 235.88 945.527 235.52 945.58 235.12C945.633 234.72 945.74 234.253 945.9 233.72C946.06 233.16 946.287 232.507 946.58 231.76C946.873 230.987 947.247 230.067 947.7 229C947.647 229 947.287 229.187 946.62 229.56C945.953 229.933 945.233 230.507 944.46 231.28C943.207 232.48 942.073 233.667 941.06 234.84C940.073 236.013 939.06 237.32 938.02 238.76C937.433 239.587 936.913 240.28 936.46 240.84C936.033 241.427 935.66 241.813 935.34 242C934.78 241.68 934.367 241.227 934.1 240.64C933.833 240.08 933.633 239.493 933.5 238.88C933.5 238.373 933.567 237.733 933.7 236.96C933.86 236.187 934.06 235.333 934.3 234.4C934.567 233.44 934.887 232.44 935.26 231.4C935.633 230.36 936.047 229.32 936.5 228.28C937.513 225.933 938.433 224.093 939.26 222.76C940.113 221.427 940.647 220.707 940.86 220.6ZM958.342 224.68C958.208 224.52 958.088 224.187 957.982 223.68C957.875 223.147 957.822 222.693 957.822 222.32C958.515 222.373 959.182 222.427 959.822 222.48C960.462 222.507 961.048 222.533 961.582 222.56C961.982 221.76 962.408 220.973 962.862 220.2C963.342 219.4 963.795 218.68 964.222 218.04C964.675 217.373 965.088 216.813 965.462 216.36C965.862 215.907 966.168 215.613 966.382 215.48C966.648 215.48 966.982 215.533 967.382 215.64C967.808 215.72 968.235 215.84 968.662 216C969.088 216.133 969.475 216.28 969.822 216.44C970.168 216.6 970.408 216.76 970.542 216.92C969.742 217.933 969.048 218.88 968.462 219.76C967.902 220.613 967.288 221.6 966.622 222.72C967.155 222.72 967.688 222.707 968.222 222.68C968.782 222.653 969.342 222.613 969.902 222.56C970.035 222.693 970.142 222.867 970.222 223.08C970.302 223.267 970.342 223.467 970.342 223.68C969.035 224.16 967.448 224.427 965.582 224.48C964.915 225.76 964.315 227.04 963.782 228.32C963.275 229.573 962.835 230.787 962.462 231.96C962.115 233.133 961.835 234.24 961.622 235.28C961.435 236.32 961.342 237.253 961.342 238.08C961.342 239.253 961.782 239.907 962.662 240.04C963.462 239.933 964.222 239.733 964.942 239.44C965.662 239.147 966.302 238.773 966.862 238.32C967.022 238.56 967.115 238.76 967.142 238.92C966.982 239.16 966.702 239.44 966.302 239.76C965.928 240.08 965.515 240.387 965.062 240.68C964.608 241 964.168 241.267 963.742 241.48C963.315 241.693 962.995 241.813 962.782 241.84C962.115 241.813 961.448 241.667 960.782 241.4C960.115 241.133 959.502 240.8 958.942 240.4C958.408 240 957.968 239.56 957.622 239.08C957.275 238.573 957.102 238.08 957.102 237.6C957.102 236.96 957.182 236.16 957.342 235.2C957.528 234.213 957.782 233.147 958.102 232C958.422 230.853 958.795 229.653 959.222 228.4C959.648 227.147 960.115 225.907 960.622 224.68H958.342Z" fill="black"/>
<path d="M847 421H1151V481H847V421Z" fill="#D9D9D9" fill-opacity="0.2"/>
<path d="M1117 441L1124.5 456L1132 441H1117Z" fill="black" fill-opacity="0.54"/>
<path d="M849.96 380.76C848.893 380.76 848.067 380.467 847.48 379.88C846.92 379.267 846.64 378.533 846.64 377.68C846.64 377.467 846.667 377.213 846.72 376.92C846.8 376.627 846.893 376.373 847 376.16C847.347 376.32 847.853 376.44 848.52 376.52C849.213 376.573 850.013 376.6 850.92 376.6C852.28 376.6 853.813 376.547 855.52 376.44C857.253 376.307 858.907 376.173 860.48 376.04C862.053 375.907 863.44 375.787 864.64 375.68C865.84 375.547 866.613 375.48 866.96 375.48C867.947 375.48 868.653 375.853 869.08 376.6C869.533 377.32 869.867 378.293 870.08 379.52C869.387 379.467 868.693 379.427 868 379.4C867.333 379.347 866.76 379.32 866.28 379.32C865.427 379.32 864.56 379.347 863.68 379.4C862.827 379.453 861.96 379.533 861.08 379.64C860.707 380.413 860.293 381.333 859.84 382.4C859.387 383.44 858.933 384.533 858.48 385.68C858.053 386.827 857.64 387.973 857.24 389.12C856.84 390.24 856.493 391.253 856.2 392.16C855.613 393.92 855.093 395.547 854.64 397.04C854.213 398.533 853.827 399.933 853.48 401.24C853.16 402.52 852.88 403.747 852.64 404.92C852.4 406.093 852.187 407.24 852 408.36C850.213 408.093 848.72 406.973 847.52 405C847.733 404.173 847.987 403.28 848.28 402.32C848.6 401.333 848.96 400.227 849.36 399C849.787 397.747 850.28 396.333 850.84 394.76C851.4 393.187 852.04 391.4 852.76 389.4C853.027 388.653 853.307 387.88 853.6 387.08C853.893 386.253 854.173 385.44 854.44 384.64C854.733 383.84 854.987 383.067 855.2 382.32C855.44 381.573 855.64 380.893 855.8 380.28C854.68 380.413 853.613 380.533 852.6 380.64C851.613 380.72 850.733 380.76 849.96 380.76ZM875.943 398.8C875.33 400.747 874.717 402.52 874.103 404.12C873.49 405.72 872.837 407.187 872.143 408.52C871.45 409.88 870.703 411.12 869.903 412.24C869.103 413.387 868.223 414.467 867.263 415.48C866.037 416.76 864.77 417.733 863.463 418.4C862.157 419.093 860.85 419.44 859.543 419.44C858.877 419.44 858.21 419.36 857.543 419.2C856.903 419.067 856.303 418.867 855.743 418.6C855.157 418.36 854.65 418.067 854.223 417.72C853.77 417.4 853.45 417.053 853.263 416.68C853.263 416.36 853.45 416.08 853.823 415.84C854.143 416.133 854.41 416.36 854.623 416.52C854.837 416.68 855.05 416.813 855.263 416.92C855.45 417.027 855.663 417.093 855.903 417.12C856.117 417.147 856.37 417.16 856.663 417.16C858.183 417.16 859.663 416.707 861.103 415.8C862.57 414.92 863.943 413.653 865.223 412C866.53 410.373 867.717 408.387 868.783 406.04C869.85 403.72 870.757 401.12 871.503 398.24C871.157 398.773 870.73 399.427 870.223 400.2C869.717 400.973 869.157 401.747 868.543 402.52C867.93 403.267 867.29 403.947 866.623 404.56C865.983 405.173 865.357 405.587 864.743 405.8C864.317 405.773 863.863 405.68 863.383 405.52C862.93 405.387 862.49 405.187 862.063 404.92C861.663 404.653 861.303 404.333 860.983 403.96C860.663 403.587 860.45 403.16 860.343 402.68C860.343 401.907 860.37 401.293 860.423 400.84C860.477 400.36 860.57 399.84 860.703 399.28C860.943 398.267 861.29 397.12 861.743 395.84C862.223 394.56 862.77 393.307 863.383 392.08C864.023 390.827 864.717 389.667 865.463 388.6C866.237 387.507 867.037 386.653 867.863 386.04C868.077 386.04 868.343 386.067 868.663 386.12C868.983 386.147 869.317 386.213 869.663 386.32C870.01 386.427 870.343 386.56 870.663 386.72C870.983 386.853 871.263 387.04 871.503 387.28C871.21 387.547 870.57 388.44 869.583 389.96C868.597 391.48 867.503 393.667 866.303 396.52C866.17 396.813 866.01 397.24 865.823 397.8C865.637 398.36 865.45 398.947 865.263 399.56C865.103 400.173 864.957 400.773 864.823 401.36C864.69 401.947 864.623 402.413 864.623 402.76C864.623 402.973 864.65 403.133 864.703 403.24C864.783 403.347 864.85 403.427 864.903 403.48C865.383 403.4 866.023 403.013 866.823 402.32C867.623 401.6 868.53 400.493 869.543 399C870.183 398.04 870.77 397.093 871.303 396.16C871.837 395.2 872.357 394.24 872.863 393.28C873.397 392.32 873.943 391.333 874.503 390.32C875.063 389.307 875.663 388.267 876.303 387.2C876.65 387.2 877.023 387.24 877.423 387.32C877.823 387.4 878.21 387.507 878.583 387.64C878.957 387.747 879.277 387.88 879.543 388.04C879.837 388.173 880.05 388.32 880.183 388.48C879.357 390.24 878.583 391.96 877.863 393.64C877.143 395.32 876.503 397.04 875.943 398.8ZM877.554 418.24C877.18 418.133 876.967 417.733 876.914 417.04C876.807 416.693 876.727 416.28 876.674 415.8C876.647 415.32 876.634 414.773 876.634 414.16C876.634 413.6 876.727 412.827 876.914 411.84C877.1 410.88 877.354 409.787 877.674 408.56C878.02 407.333 878.434 406.013 878.914 404.6C879.394 403.16 879.927 401.707 880.514 400.24C881.234 398.4 881.86 396.813 882.394 395.48C882.927 394.12 883.367 392.947 883.714 391.96C884.087 390.973 884.38 390.16 884.594 389.52C884.834 388.88 885.02 388.333 885.154 387.88C885.26 387.56 885.42 387.173 885.634 386.72C885.847 386.267 886.087 385.813 886.354 385.36C886.647 384.88 886.94 384.44 887.234 384.04C887.527 383.613 887.794 383.293 888.034 383.08C888.967 383.213 889.847 383.453 890.674 383.8C891.5 384.147 892.007 384.48 892.194 384.8C891.82 385.147 891.394 385.693 890.914 386.44C890.434 387.16 889.967 387.96 889.514 388.84C889.06 389.693 888.647 390.573 888.274 391.48C887.9 392.387 887.62 393.187 887.434 393.88C887.7 393.427 888.047 392.933 888.474 392.4C888.9 391.867 889.554 391.133 890.434 390.2C891.42 389.187 892.34 388.413 893.194 387.88C894.074 387.32 894.834 387.04 895.474 387.04C896.487 387.04 897.314 387.32 897.954 387.88C898.62 388.44 898.954 389.16 898.954 390.04C898.954 391.96 898.634 393.867 897.994 395.76C897.354 397.627 896.434 399.32 895.234 400.84C894.78 401.427 894.247 401.987 893.634 402.52C893.02 403.053 892.38 403.533 891.714 403.96C891.047 404.36 890.394 404.68 889.754 404.92C889.114 405.16 888.54 405.28 888.034 405.28C887.554 405.28 887.127 405.187 886.754 405C886.407 404.787 886.167 404.533 886.034 404.24C887.074 403.627 888.087 402.773 889.074 401.68C890.06 400.587 890.967 399.333 891.794 397.92C892.647 396.48 893.38 394.933 893.994 393.28C894.634 391.627 895.114 389.947 895.434 388.24C894.42 388.773 893.5 389.36 892.674 390C891.874 390.613 891.074 391.427 890.274 392.44C889.314 393.613 888.554 394.56 887.994 395.28C887.434 396 886.967 396.613 886.594 397.12C886.247 397.627 885.954 398.107 885.714 398.56C885.5 398.987 885.26 399.52 884.994 400.16C884.62 401.013 884.18 402.147 883.674 403.56C883.194 404.947 882.687 406.507 882.154 408.24C881.647 409.973 881.127 411.813 880.594 413.76C880.087 415.733 879.594 417.693 879.114 419.64C878.82 419.587 878.567 419.373 878.354 419C878.14 418.76 877.98 418.587 877.874 418.48C877.794 418.373 877.687 418.293 877.554 418.24ZM914.716 388.44C914.609 390.093 914.316 391.52 913.836 392.72C913.356 393.893 912.662 394.933 911.756 395.84C910.876 396.72 909.796 397.52 908.516 398.24C907.236 398.96 905.742 399.653 904.036 400.32C904.036 400.48 904.022 400.653 903.996 400.84C903.996 401 903.996 401.173 903.996 401.36C903.996 401.707 904.022 402.067 904.076 402.44C904.129 402.813 904.222 403.16 904.356 403.48C904.489 403.8 904.676 404.067 904.916 404.28C905.156 404.467 905.462 404.56 905.836 404.56C906.556 404.56 907.262 404.4 907.956 404.08C908.649 403.76 909.302 403.373 909.916 402.92C910.556 402.44 911.142 401.933 911.676 401.4C912.236 400.84 912.729 400.333 913.156 399.88C913.422 400.12 913.649 400.347 913.836 400.56C912.636 402.16 911.316 403.493 909.876 404.56C908.462 405.6 907.116 406.267 905.836 406.56C903.996 406.347 902.556 405.68 901.516 404.56C900.502 403.413 899.996 402.04 899.996 400.44C899.996 399.347 900.142 398.24 900.436 397.12C900.756 395.973 901.182 394.88 901.716 393.84C902.276 392.773 902.916 391.773 903.636 390.84C904.382 389.907 905.169 389.093 905.996 388.4C906.849 387.707 907.716 387.16 908.596 386.76C909.502 386.36 910.396 386.16 911.276 386.16C912.502 386.32 913.649 387.08 914.716 388.44ZM911.956 389.76C911.236 389.867 910.489 390.16 909.716 390.64C908.942 391.12 908.209 391.76 907.516 392.56C906.849 393.36 906.236 394.293 905.676 395.36C905.116 396.427 904.676 397.573 904.356 398.8C906.489 397.733 908.262 396.427 909.676 394.88C911.089 393.307 911.849 391.6 911.956 389.76Z" fill="black"/>
<rect x="914" y="646" width="159" height="47" rx="15" fill="#6E2727"/>
<path d="M963.84 686.04C962.56 685.667 961.667 685.293 961.16 684.92C960.68 684.547 960.44 684.08 960.44 683.52C960.44 683.093 960.56 682.493 960.8 681.72C961.04 680.947 961.387 680.04 961.84 679C962.32 677.933 962.88 676.76 963.52 675.48C964.187 674.2 964.933 672.827 965.76 671.36C965.067 671.333 964.44 671.32 963.88 671.32C963.347 671.293 962.907 671.28 962.56 671.28C962.72 670.88 963.173 670.533 963.92 670.24C964.667 669.947 965.653 669.693 966.88 669.48C967.92 667.747 969.027 666.093 970.2 664.52C971.4 662.947 972.6 661.507 973.8 660.2C975 658.867 976.2 657.707 977.4 656.72C978.6 655.707 979.747 654.907 980.84 654.32C980.867 654.133 980.88 653.973 980.88 653.84C980.907 653.707 980.92 653.613 980.92 653.56C981.293 653.56 981.787 653.653 982.4 653.84C983.04 654.027 983.653 654.253 984.24 654.52C984.853 654.787 985.387 655.067 985.84 655.36C986.32 655.627 986.587 655.853 986.64 656.04C985.76 657.587 984.893 659.907 984.04 663C983.187 666.067 982.48 669.747 981.92 674.04C981.787 675.107 981.667 676.32 981.56 677.68C981.48 679.04 981.44 680.56 981.44 682.24C981.44 682.827 981.44 683.427 981.44 684.04C981.44 684.653 981.467 685.293 981.52 685.96C981.467 685.987 981.413 686 981.36 686C981.307 686 981.2 686 981.04 686C980.667 686 980.227 685.933 979.72 685.8C979.24 685.693 978.76 685.547 978.28 685.36C977.827 685.2 977.427 685.013 977.08 684.8C976.76 684.587 976.56 684.4 976.48 684.24C976.453 683.893 976.44 683.547 976.44 683.2C976.44 682.88 976.44 682.533 976.44 682.16C976.44 680.507 976.493 678.827 976.6 677.12C976.733 675.413 976.947 673.653 977.24 671.84C976.867 671.813 976.373 671.787 975.76 671.76C975.147 671.707 974.453 671.667 973.68 671.64C972.933 671.613 972.12 671.587 971.24 671.56C970.387 671.507 969.547 671.467 968.72 671.44C968.08 672.64 967.48 673.84 966.92 675.04C966.36 676.213 965.88 677.4 965.48 678.6C965.027 679.88 964.653 681.16 964.36 682.44C964.093 683.72 963.92 684.92 963.84 686.04ZM979.28 662C979.387 661.627 979.507 661.12 979.64 660.48C979.8 659.813 979.947 659.12 980.08 658.4C979.413 658.64 978.667 659.08 977.84 659.72C977.04 660.36 976.2 661.16 975.32 662.12C974.467 663.053 973.587 664.12 972.68 665.32C971.8 666.493 970.947 667.747 970.12 669.08C972.36 668.893 974.907 668.773 977.76 668.72C977.973 667.6 978.2 666.493 978.44 665.4C978.707 664.28 978.987 663.147 979.28 662ZM995.014 664.32C995.547 664.32 996.161 664.48 996.854 664.8C997.547 665.12 998.161 665.533 998.694 666.04C998.561 664.973 998.387 663.973 998.174 663.04C997.987 662.08 997.694 661.093 997.294 660.08C996.921 659.067 996.414 657.96 995.774 656.76C995.134 655.56 994.334 654.187 993.374 652.64C993.454 652.4 993.627 652.12 993.894 651.8C994.187 651.48 994.507 651.187 994.854 650.92C995.227 650.627 995.601 650.373 995.974 650.16C996.374 649.947 996.747 649.813 997.094 649.76C997.841 650.587 998.547 651.627 999.214 652.88C999.881 654.107 1000.47 655.44 1000.97 656.88C1001.48 658.293 1001.87 659.76 1002.13 661.28C1002.43 662.8 1002.57 664.253 1002.57 665.64C1002.57 667.027 1002.41 668.453 1002.09 669.92C1001.8 671.387 1001.37 672.827 1000.81 674.24C1000.28 675.627 999.654 676.947 998.934 678.2C998.214 679.453 997.427 680.573 996.574 681.56C995.747 682.547 994.881 683.347 993.974 683.96C993.067 684.6 992.161 685 991.254 685.16C989.414 684.947 988.001 684.347 987.014 683.36C986.054 682.4 985.574 681.067 985.574 679.36C985.574 678.453 985.707 677.467 985.974 676.4C986.267 675.333 986.641 674.28 987.094 673.24C987.574 672.173 988.121 671.147 988.734 670.16C989.374 669.147 990.041 668.24 990.734 667.44C991.454 666.64 992.174 665.96 992.894 665.4C993.614 664.84 994.321 664.48 995.014 664.32ZM990.934 683.56C991.867 683.24 992.801 682.533 993.734 681.44C994.667 680.347 995.507 679.067 996.254 677.6C997.001 676.107 997.601 674.52 998.054 672.84C998.534 671.133 998.774 669.493 998.774 667.92C998.774 667.467 998.774 667.187 998.774 667.08C998.774 666.973 998.761 666.867 998.734 666.76C998.094 667.027 997.414 667.48 996.694 668.12C995.974 668.76 995.254 669.507 994.534 670.36C993.814 671.187 993.134 672.093 992.494 673.08C991.854 674.067 991.281 675.053 990.774 676.04C990.267 677.027 989.867 677.973 989.574 678.88C989.281 679.787 989.134 680.587 989.134 681.28C989.134 682.613 989.734 683.373 990.934 683.56ZM1012.32 664.32C1012.85 664.32 1013.47 664.48 1014.16 664.8C1014.85 665.12 1015.47 665.533 1016 666.04C1015.87 664.973 1015.69 663.973 1015.48 663.04C1015.29 662.08 1015 661.093 1014.6 660.08C1014.23 659.067 1013.72 657.96 1013.08 656.76C1012.44 655.56 1011.64 654.187 1010.68 652.64C1010.76 652.4 1010.93 652.12 1011.2 651.8C1011.49 651.48 1011.81 651.187 1012.16 650.92C1012.53 650.627 1012.91 650.373 1013.28 650.16C1013.68 649.947 1014.05 649.813 1014.4 649.76C1015.15 650.587 1015.85 651.627 1016.52 652.88C1017.19 654.107 1017.77 655.44 1018.28 656.88C1018.79 658.293 1019.17 659.76 1019.44 661.28C1019.73 662.8 1019.88 664.253 1019.88 665.64C1019.88 667.027 1019.72 668.453 1019.4 669.92C1019.11 671.387 1018.68 672.827 1018.12 674.24C1017.59 675.627 1016.96 676.947 1016.24 678.2C1015.52 679.453 1014.73 680.573 1013.88 681.56C1013.05 682.547 1012.19 683.347 1011.28 683.96C1010.37 684.6 1009.47 685 1008.56 685.16C1006.72 684.947 1005.31 684.347 1004.32 683.36C1003.36 682.4 1002.88 681.067 1002.88 679.36C1002.88 678.453 1003.01 677.467 1003.28 676.4C1003.57 675.333 1003.95 674.28 1004.4 673.24C1004.88 672.173 1005.43 671.147 1006.04 670.16C1006.68 669.147 1007.35 668.24 1008.04 667.44C1008.76 666.64 1009.48 665.96 1010.2 665.4C1010.92 664.84 1011.63 664.48 1012.32 664.32ZM1008.24 683.56C1009.17 683.24 1010.11 682.533 1011.04 681.44C1011.97 680.347 1012.81 679.067 1013.56 677.6C1014.31 676.107 1014.91 674.52 1015.36 672.84C1015.84 671.133 1016.08 669.493 1016.08 667.92C1016.08 667.467 1016.08 667.187 1016.08 667.08C1016.08 666.973 1016.07 666.867 1016.04 666.76C1015.4 667.027 1014.72 667.48 1014 668.12C1013.28 668.76 1012.56 669.507 1011.84 670.36C1011.12 671.187 1010.44 672.093 1009.8 673.08C1009.16 674.067 1008.59 675.053 1008.08 676.04C1007.57 677.027 1007.17 677.973 1006.88 678.88C1006.59 679.787 1006.44 680.587 1006.44 681.28C1006.44 682.613 1007.04 683.373 1008.24 683.56Z" fill="white"/>
<defs>
<clipPath id="clip0_0_1">
<rect width="375" height="812" fill="white"/>
</clipPath>
<clipPath id="clip1_0_1">
<rect width="375" height="812" fill="white" transform="translate(405)"/>
</clipPath>
</defs>
</svg>
